<?xml version="1.0" encoding="UTF-8" standalone="no"?>
<svg
   width="64"
   height="64"
   version="1.1"
   id="svg1"
   sodipodi:docname="generic_button_circle_fill2.svg"
   inkscape:version="1.4.2 (ebf0e940d0, 2025-05-08)"
   xmlns:inkscape="http://www.inkscape.org/namespaces/inkscape"
   xmlns:sodipodi="http://sodipodi.sourceforge.net/DTD/sodipodi-0.dtd"
   xmlns="http://www.w3.org/2000/svg"
   xmlns:svg="http://www.w3.org/2000/svg">
  <sodipodi:namedview
     id="namedview1"
     pagecolor="#505050"
     bordercolor="#ffffff"
     borderopacity="1"
     inkscape:showpageshadow="0"
     inkscape:pageopacity="0"
     inkscape:pagecheckerboard="1"
     inkscape:deskcolor="#505050"
     inkscape:zoom="4.2148438"
     inkscape:cx="2.1353105"
     inkscape:cy="80.074143"
     inkscape:window-width="2133"
     inkscape:window-height="1302"
     inkscape:window-x="0"
     inkscape:window-y="0"
     inkscape:window-maximized="1"
     inkscape:current-layer="svg1" />
  <defs
     id="defs1" />
  <g
     id="g1"
     transform="matrix(1.3333333,0,0,1.3333333,-10.666667,-10.666667)">
    <path
       stroke="none"
       fill="#ffffff"
       d="M 20.7,20.7 Q 25.35,16 32,16 q 6.65,0 11.25,4.65 L 43.65,21 Q 48,25.6 48,32 q 0,6.65 -4.65,11.25 l -0.1,0.1 Q 38.65,48 32,48 25.6,48 21,43.65 l -0.35,-0.4 Q 16,38.65 16,32 16,25.35 20.7,20.7 H 20.65 L 20.7,20.65 V 20.7 M 32,12 Q 23.7,12 17.85,17.85 12,23.7 12,32 q 0,8.3 5.85,14.1 v 0.05 Q 23.7,52 32,52 40.3,52 46.1,46.15 L 46.15,46.1 Q 52,40.3 52,32 52,23.7 46.15,17.85 H 46.1 Q 40.3,12 32,12 M 56,32 Q 56,42 48.95,48.95 42,56 32,56 22.05,56 15,48.95 8,42 8,32 8,22.05 15,15 22.05,8 32,8 42,8 48.95,15 56,22.05 56,32"
       id="path1" />
  </g>
</svg>
