<?xml version="1.0" encoding="UTF-8" standalone="no"?>
<!-- Created with Inkscape (http://www.inkscape.org/) -->

<svg
   width="210mm"
   height="297mm"
   viewBox="0 0 210 297"
   version="1.1"
   id="svg1"
   xml:space="preserve"
   inkscape:version="1.4.2 (ebf0e940d0, 2025-05-08)"
   sodipodi:docname="ChakrasSource.svg"
   xmlns:inkscape="http://www.inkscape.org/namespaces/inkscape"
   xmlns:sodipodi="http://sodipodi.sourceforge.net/DTD/sodipodi-0.dtd"
   xmlns="http://www.w3.org/2000/svg"
   xmlns:svg="http://www.w3.org/2000/svg"><sodipodi:namedview
     id="namedview1"
     pagecolor="#505050"
     bordercolor="#ffffff"
     borderopacity="1"
     inkscape:showpageshadow="0"
     inkscape:pageopacity="0"
     inkscape:pagecheckerboard="1"
     inkscape:deskcolor="#505050"
     inkscape:document-units="mm"
     inkscape:zoom="1.359385"
     inkscape:cx="283.21631"
     inkscape:cy="473.37582"
     inkscape:window-width="2133"
     inkscape:window-height="1302"
     inkscape:window-x="0"
     inkscape:window-y="0"
     inkscape:window-maximized="1"
     inkscape:current-layer="layer1" /><defs
     id="defs1" /><g
     inkscape:label="Layer 1"
     inkscape:groupmode="layer"
     id="layer1"><path
       style="fill:#ef3e44;fill-opacity:1"
       d="m 15.22372,222.66229 c -0.6336,-0.56307 -1.9491,-1.54887 -2.9233,-2.19068 -2.2511,-1.48308 -3.46536,-2.84291 -3.46536,-3.88095 0,-0.4315 0.0451,-0.78455 0.10023,-0.78455 0.0551,0 0.78104,0.40996 1.61313,0.91101 0.8321,0.50106 2.3343,1.12262 3.3383,1.38125 1.7644,0.45452 1.8307,0.50147 1.9847,1.4041 0.088,0.51362 0.2469,1.29104 0.354,1.7276 0.1766,0.71976 0.2122,0.6579 0.382,-0.66373 0.103,-0.80162 0.2716,-1.5915 0.3746,-1.75529 0.1031,-0.16378 0.9613,-0.49372 1.9072,-0.7332 0.9459,-0.23947 2.4122,-0.86067 3.2584,-1.38043 0.8462,-0.51976 1.6046,-0.87895 1.6854,-0.79821 0.081,0.0807 0.072,0.54693 -0.02,1.03596 -0.1941,1.03456 -1.1766,2.03124 -3.5978,3.64965 -0.9442,0.63113 -2.1944,1.5871 -2.7781,2.12437 l -1.0614,0.97685 z m -1.6262,-5.23725 c -4.0928,-1.34429 -6.76634,-4.43035 -7.488,-8.6434 -0.74101,-4.32599 1.71363,-8.82382 5.9005,-10.812 1.5655,-0.74338 1.9572,-0.81665 4.3657,-0.81665 2.3058,0 2.8369,0.0896 4.1327,0.69722 5.3216,2.49523 7.5854,8.53617 5.2107,13.90459 -0.8264,1.86825 -3.0924,4.10864 -5.0541,4.997 -1.3417,0.60758 -2.0808,0.75769 -4.0248,0.81738 -1.3096,0.0402 -2.6789,-0.0247 -3.0427,-0.14414 z m 6.2711,-1.39991 c 3.0572,-1.13743 5.5553,-4.54996 5.8292,-7.96298 0.486,-6.05413 -4.8252,-10.91213 -10.8731,-9.94537 -3.0538,0.48815 -5.58592,2.38513 -6.98413,5.2322 -0.63617,1.29538 -0.72533,1.78589 -0.72533,3.99047 0,2.19839 0.0899,2.696 0.71681,3.96875 2.24695,4.56156 7.21805,6.50966 12.03655,4.71693 z m -5.5476,-0.22667 c -1.1631,-0.29229 -3.214,-1.29421 -3.0286,-1.47958 0.1594,-0.15936 10.0002,-0.16629 10.1594,-0.007 0.064,0.064 -0.5453,0.44007 -1.354,0.83573 -1.6314,0.79818 -4.089,1.07514 -5.7768,0.651 z m -4.0445,-2.71087 c -0.071,-0.1855 -0.097,-2.89417 -0.058,-6.01927 l 0.072,-5.682 6.0193,-0.0711 6.0192,-0.0711 v 6.09038 6.09038 h -5.9614 c -4.5867,0 -5.9913,-0.0778 -6.0908,-0.33727 z m 8.981,-5.84223 c 1.5005,-2.99889 2.6664,-5.51423 2.591,-5.58964 -0.1776,-0.17766 -11.1614,-0.18003 -11.1614,-0.002 0,0.33464 5.6015,11.28531 5.7148,11.17207 0.07,-0.0701 1.3551,-2.58113 2.8556,-5.58002 z m -5.2631,-0.43508 -2.2519,-4.49792 h 4.4994 c 2.4747,0 4.4994,0.0974 4.4994,0.21632 0,0.31277 -4.209,8.77952 -4.3645,8.77952 -0.072,0 -1.1438,-2.02406 -2.3824,-4.49792 z m 3.6535,-0.75635 c -0.1021,-1.21833 -0.054,-1.87559 0.1477,-1.99999 0.7042,-0.43523 0.1663,-0.6022 -1.8602,-0.57739 -1.4725,0.018 -2.1953,0.1317 -2.271,0.35717 -0.08,0.23835 0.3017,0.33073 1.3663,0.33073 1.7091,0 2.0097,0.45927 0.3797,0.5801 -1.3823,0.10247 -1.7688,0.62998 -1.2967,1.76986 0.188,0.45377 0.4989,0.82504 0.6909,0.82504 0.2862,0 0.2842,-0.12505 -0.011,-0.69438 -0.1982,-0.38191 -0.2974,-0.85816 -0.2206,-1.05833 0.1882,-0.49056 0.8768,-0.4647 0.8768,0.0329 0,0.21828 0.1063,0.39687 0.2362,0.39687 0.13,0 0.3049,-0.17859 0.3886,-0.39687 0.2798,-0.72903 0.6496,-0.40846 0.8395,0.7276 0.1528,0.91419 0.4688,1.48804 0.8354,1.5173 0.028,0.002 -0.018,-0.81256 -0.1014,-1.81063 z m -0.3462,-3.2124 c 0,-0.14552 -0.1191,-0.26458 -0.2646,-0.26458 -0.1455,0 -0.2646,0.11906 -0.2646,0.26458 0,0.14552 0.1191,0.26458 0.2646,0.26458 0.1455,0 0.2646,-0.11906 0.2646,-0.26458 z m -8.25815,9.25609 C 7.33011,209.57901 7.2639,205.36965 8.89796,202.84153 l 0.59855,-0.92604 0.0754,2.71198 c 0.0415,1.49159 0.0415,3.93237 0,5.42396 -0.0738,2.65275 -0.0853,2.69743 -0.52835,2.04619 z m 14.07895,-4.75817 c 0,-2.91042 0.058,-5.29167 0.1279,-5.29167 0.07,0 0.4567,0.62508 0.8586,1.38906 0.6492,1.23405 0.7308,1.66957 0.7308,3.90261 0,2.23304 -0.082,2.66855 -0.7308,3.9026 -0.4019,0.76399 -0.7883,1.38906 -0.8586,1.38906 -0.07,0 -0.1279,-2.38125 -0.1279,-5.29166 z m -11.9062,-7.02363 c 0,-0.33067 2.8499,-1.43046 4.117,-1.58877 1.7201,-0.21492 3.9119,0.22903 5.2803,1.0695 l 1.0537,0.64722 -5.2255,0.008 c -2.874,0.005 -5.2255,-0.0567 -5.2255,-0.1362 z m -5.894,13.65467 c -0.48692,-0.42753 -1.5182,-1.70745 -2.29173,-2.84428 -0.77352,-1.13682 -1.77185,-2.4539 -2.2185,-2.92685 L 0,207.33947 l 0.80169,-0.8599 c 0.44093,-0.47294 1.49794,-1.87193 2.34892,-3.10885 0.85098,-1.23693 1.73396,-2.4002 1.96219,-2.58506 0.88758,-0.71888 1.91936,-1.13916 2.41245,-0.98265 0.49819,0.15811 0.49428,0.19253 -0.11428,1.00582 -0.99476,1.32942 -1.50688,2.49858 -1.86027,4.2469 l -0.32791,1.62228 -1.63345,0.24488 c -0.8984,0.13468 -1.63345,0.32766 -1.63345,0.42884 0,0.10118 0.72065,0.2655 1.60145,0.36515 0.8808,0.0997 1.64196,0.32339 1.69148,0.4972 0.0495,0.17381 0.22731,0.98697 0.39511,1.80702 0.16779,0.82005 0.71631,2.17393 1.21893,3.00862 0.50263,0.83468 0.91386,1.56271 0.91386,1.61784 0,0.0551 -0.35304,0.10024 -0.78454,0.10024 -0.49075,0 -1.11608,-0.29109 -1.66986,-0.77731 z m 20.3315,-0.6878 c 0.5155,-0.80581 1.1473,-2.29242 1.4041,-3.30357 0.2568,-1.01115 0.5302,-1.90172 0.6075,-1.97905 0.077,-0.0773 0.843,-0.23846 1.7015,-0.35808 1.6588,-0.23114 1.5553,-0.37314 -0.5371,-0.73712 l -1.3042,-0.22686 -0.3427,-1.51868 c -0.3576,-1.58479 -1.1422,-3.33113 -1.9765,-4.3994 -0.5503,-0.70466 -0.4569,-1.08976 0.2323,-0.95777 0.2541,0.0487 0.6016,0.0976 0.7724,0.10873 0.6269,0.0409 2.0089,1.47212 3.3143,3.4324 0.7369,1.10649 1.7603,2.45355 2.2743,2.99345 l 0.9346,0.98166 -1.0768,1.16827 c -0.5923,0.64255 -1.5708,1.95032 -2.1745,2.90617 -1.4491,2.29457 -2.6669,3.35496 -3.8528,3.35496 h -0.9136 z M 8.83506,198.08826 c 0,-1.086 1.21746,-2.39121 3.95486,-4.23984 1.2446,-0.84047 2.5495,-1.83763 2.8998,-2.2159 l 0.637,-0.68777 1.0943,1.00863 c 0.6018,0.55474 1.982,1.61051 3.0671,2.34614 2.482,1.68262 3.1445,2.39825 3.341,3.6093 0.1795,1.10625 -0.065,1.20469 -1.0552,0.4255 -0.9233,-0.72626 -2.6863,-1.48526 -4.2792,-1.84223 -0.7215,-0.16171 -1.3993,-0.43532 -1.506,-0.60802 -0.1067,-0.1727 -0.2783,-0.96987 -0.3813,-1.77149 -0.1698,-1.32163 -0.2054,-1.3835 -0.382,-0.66374 -0.1071,0.43657 -0.2699,1.23262 -0.3618,1.76901 -0.1613,0.94166 -0.2191,0.98601 -1.6796,1.2874 -1.5337,0.31649 -3.0564,0.97493 -4.33148,1.87294 -0.9311,0.65575 -1.01748,0.63113 -1.01748,-0.28993 z"
       id="path35"
       sodipodi:nodetypes="sssssscsssssscsscscssssssscssssssssssssscccccccsccssssssscssssccsssssssssscscccssssssscsssssssscsscssccccssscsssssscsssssssssssssscsssssscssscsssscssscssssssss"
       inkscape:export-filename="Root.svg"
       inkscape:export-xdpi="96"
       inkscape:export-ydpi="96" /><path
       d="M 13.6887,54.848312 C 8.3513,53.07935 5.3327,48.120744 6.4123,42.895513 7.0902,39.61443 8.9632,37.166021 12.0133,35.5736 c 1.5859,-0.827947 1.8239,-0.874684 4.4536,-0.874684 2.5064,0 2.9404,0.07495 4.4377,0.766416 2.1335,0.985254 4.5463,3.491357 5.2995,5.504354 1.1289,3.017271 0.8981,6.527101 -0.597,9.078264 -0.9103,1.553295 -3.1043,3.499107 -4.8492,4.300663 -1.8077,0.830386 -5.3219,1.078794 -7.0692,0.499699 z m 6.4034,-1.28198 c 1.9495,-0.718612 3.8495,-2.524893 4.8995,-4.657744 0.7775,-1.579288 0.8674,-1.998207 0.8622,-4.01765 0,-1.873052 -0.1238,-2.508587 -0.7039,-3.756071 -3.4148,-7.344171 -13.5266,-7.487286 -17.0849,-0.241805 -0.6372,1.297583 -0.7262,1.786745 -0.726,3.992312 2e-4,3.015713 0.4886,4.299461 2.4219,6.366374 2.7241,2.912315 6.447,3.746378 10.3312,2.314584 z M 14.0513,53.202585 C 11.3815,52.380537 8.9553,49.98452 8.218,47.441932 7.7935,45.978034 7.8435,43.124116 8.314,41.98578 l 0.378,-0.915219 1.3336,2.238136 c 1.0102,1.69533 4.9261,8.482028 5.8331,10.109489 0.1582,0.28393 -0.4018,0.217123 -1.8071,-0.215601 z m 3.2093,0.345411 c 0,-0.06087 1.5974,-2.87905 3.5498,-6.262623 3.3794,-5.856706 3.5667,-6.122233 3.9019,-5.532745 0.2247,0.395235 0.3523,1.528366 0.3528,3.132746 6e-4,2.157809 -0.093,2.696196 -0.6584,3.804146 -0.8953,1.753129 -2.2923,3.130237 -4.0007,3.943874 -1.3358,0.636179 -3.1454,1.162352 -3.1454,0.914602 z m -1.6543,-1.960891 c -0.7071,-1.179659 -5.576,-9.605746 -6.2042,-10.736626 -0.061,-0.109141 3.1663,-0.198438 7.171,-0.198438 h 7.2812 l -3.4615,6.019271 c -1.9038,3.310598 -3.5516,6.118018 -3.6618,6.23871 -0.1102,0.120691 -0.6163,-0.474621 -1.1247,-1.322917 z m 2.1562,-1.873085 c 0.5737,-0.473988 0.6193,-0.775403 0.4775,-3.15773 -0.068,-1.140396 0,-1.392843 0.3955,-1.496584 0.2625,-0.06864 0.4772,-0.287164 0.4772,-0.48562 0,-0.513219 -4.7448,-0.670497 -5.0636,-0.167844 -0.3849,0.606849 -0.2527,0.696669 0.8143,0.553553 1.5762,-0.211412 2.4493,0.08412 2.3482,0.794827 -0.07,0.492522 -0.2415,0.581148 -1.0755,0.555781 -0.5457,-0.0166 -0.9903,0.04293 -0.9881,0.132292 0.011,0.436697 0.4799,0.796975 1.3193,1.013407 0.6568,0.169353 0.9502,0.40738 1.0103,0.819531 0.1681,1.153047 -1.8535,1.076537 -2.3851,-0.09027 -0.3747,-0.822276 -0.7423,-0.843706 -0.7423,-0.04327 0,1.595599 2.1723,2.596298 3.4123,1.571924 z m -0.029,-6.903963 c 0.3921,-0.499904 0.3285,-1.409041 -0.1086,-1.552799 -0.1634,-0.05373 -0.3605,0.144987 -0.4381,0.441592 -0.1766,0.675239 -1.1905,1.074288 -1.9768,0.778049 -0.9522,-0.358688 -0.7119,0.266989 0.2645,0.688926 0.9632,0.416199 1.7508,0.292164 2.259,-0.355768 z m -1.2668,-1.247589 c 0,-0.38893 -0.5648,-0.52196 -0.8796,-0.207167 -0.2393,0.239271 0.3537,0.913482 0.645,0.73342 0.1291,-0.07975 0.2346,-0.31656 0.2346,-0.526253 z M 9.8853,39.282622 c 0.7601,-1.067471 2.6626,-2.25487 4.4457,-2.77474 2.7882,-0.812859 6.19,0.07355 8.2873,2.159396 0.5457,0.542729 0.9922,1.082016 0.9922,1.198418 0,0.116401 -3.218,0.215116 -7.1511,0.219366 l -7.151,0.0077 z M 7.6032,54.035364 C 6.5282,53.555532 5.6843,52.591976 3.8975,49.804413 3.0665,48.508062 1.8497,46.873302 1.1933,46.171614 L 0,44.895818 1.288,43.483855 c 0.7085,-0.77658 1.9332,-2.450001 2.7216,-3.718713 2.1523,-3.463594 4.0271,-4.84869 5.8008,-4.28574 0.4824,0.15311 0.4228,0.271239 -0.6239,1.236009 C 7.509,38.26171 6.387,40.168339 5.8812,42.332228 L 5.439,44.223916 3.8753,44.448895 c -2.8758,0.413749 -2.8832,0.559079 -0.042,0.83457 1.7323,0.167993 1.7859,0.195156 1.7859,0.904464 0,1.976996 1.6799,5.171473 3.6604,6.960733 0.8009,0.723601 0.9624,0.994139 0.6622,1.109346 -0.6295,0.241535 -1.4796,0.16058 -2.3382,-0.222644 z m 15.5737,0.222962 c -0.1737,-0.079 0.2803,-0.719783 1.0727,-1.513821 1.5911,-1.594539 2.9817,-4.193424 3.2249,-6.026923 l 0.1695,-1.277381 1.8197,-0.179309 c 1.0008,-0.09862 1.8197,-0.267603 1.8197,-0.375518 0,-0.107915 -0.8189,-0.276898 -1.8197,-0.375518 l -1.8197,-0.179308 -0.1707,-1.2865 C 27.2151,41.097273 25.665,38.237226 24.1107,36.839793 l -1.33,-1.195725 0.7035,-0.176546 c 2.0358,-0.510974 3.5746,0.869946 6.8089,6.110561 0.3593,0.582083 1.1497,1.568588 1.7566,2.192234 l 1.1035,1.1339 -0.892,0.850474 c -0.4906,0.467761 -1.8579,2.296688 -3.0385,4.064282 -1.1806,1.767594 -2.5151,3.476312 -2.9657,3.797151 -0.7979,0.568173 -2.4742,0.917685 -3.0801,0.642202 z"
       style="fill:#6580dc;fill-opacity:1"
       id="path1"
       inkscape:export-filename="ThirdEye.svg"
       inkscape:export-xdpi="96"
       inkscape:export-ydpi="96" /><path
       d="m 11.439544,84.40266 c -0.5611,-1.258154 -0.7882,-3.059895 -0.4307,-3.41741 0.099,-0.09906 0.4993,-0.09999 0.8894,-0.0021 0.6878,0.172617 0.7048,0.222759 0.5578,1.647129 -0.1748,1.693401 -0.048,1.711991 0.4269,0.0627 0.2972,-1.031417 0.4312,-1.172276 1.1849,-1.245811 0.6492,-0.06333 0.8499,0.02096 0.8499,0.356888 0,0.779223 -0.8164,2.083907 -1.8742,2.995401 l -1.0308,0.888137 z m 5.8121,0.23634 c -1.7575,-1.838581 -2.0901,-3.241135 -0.7685,-3.241135 0.6655,0 0.8296,0.154735 1.1924,1.124477 l 0.4206,1.124471 -0.1093,-1.128351 c -0.087,-0.896262 -0.01,-1.181995 0.3777,-1.389066 1.0138,-0.542552 1.3157,-0.330796 1.3157,0.922846 0,1.076814 -0.9242,3.578942 -1.322,3.578942 -0.087,0 -0.5849,-0.44649 -1.1066,-0.992184 z M 6.1919443,81.199428 c 0.1388,-1.732455 0.5705,-2.976562 1.0329,-2.976562 0.1243,0 0.498,0.220328 0.8306,0.489619 l 0.6046,0.48962 -0.5319,0.767151 c -0.9564,1.37926 -0.9477,1.57885 0.025,0.56636 0.9262,-0.964277 0.9751,-0.981569 1.6058,-0.568267 0.7033997,0.460872 0.6238997,0.911093 -0.3067,1.736614 -0.4279,0.379579 -2.688,1.281396 -3.2114,1.281396 -0.1055,0 -0.1275,-0.803667 -0.049,-1.785931 z m 16.5309997,1.343731 c -1.1111,-0.399477 -2.5136,-1.55914 -2.5136,-2.078367 0,-0.167697 0.2905,-0.437241 0.6455,-0.598986 0.576,-0.262434 0.7326,-0.194833 1.4552,0.628196 0.9366,1.066725 1.0473,0.899793 0.2598,-0.391887 l -0.548,-0.898876 0.549,-0.548983 0.549,-0.548983 0.5865,0.586586 c 0.4663,0.466264 0.6081,0.966772 0.6914,2.440046 0.1165,2.062631 0.1226,2.057501 -1.6748,1.411254 z m -10.659,-2.157502 C 9.8998443,79.61134 7.9085443,78.094207 6.7198443,76.31411 c -1.3844,-2.073141 -1.723,-3.28351 -1.7235,-6.161036 -4e-4,-2.093821 0.093,-2.572869 0.7728,-3.96875 1.1015,-2.261329 3.5659,-4.622498 5.5888997,-5.354715 2.1958,-0.794794 3.9822,-0.977294 5.8297,-0.595585 4.4134,0.911822 7.524,4.099617 8.3442,8.551244 0.6089,3.304769 -0.5545,6.767141 -3.0748,9.150762 -2.0547,1.943244 -3.8702,2.71233 -6.714,2.844239 -1.7696,0.08208 -2.594,-0.0063 -3.6792,-0.394612 z m 7.1238,-1.443963 c 2.6618,-1.304164 4.4229,-3.449963 5.1422,-6.265472 1.1091,-4.341095 -1.1444,-8.850233 -5.3971,-10.799397 -1.2071,-0.553243 -1.9167,-0.690567 -3.6182,-0.700214 -1.8534,-0.01051 -2.3307,0.09242 -3.8365,0.827273 -2.6775997,1.306679 -4.1304997,2.89731 -5.0271997,5.503811 -1.6729,4.862401 1.1092,10.315586 6.0772997,11.911882 1.8579,0.596982 4.9132,0.377741 6.6595,-0.477883 z m -5.9278,0.05163 C 9.3984443,78.083571 6.6091443,74.597635 6.6096443,70.682246 c 2e-4,-1.987313 0.5307,-4.317539 0.8961,-3.93626 0.2461,0.256729 7.1473997,12.256974 7.1473997,12.428061 0,0.132391 -0.1427,0.113875 -1.3932,-0.180723 z m 2.7875,-0.04285 c 0.07,-0.181901 1.6872,-3.061572 3.5931,-6.399268 l 3.4651,-6.068538 0.4347,1.040348 c 0.257,0.615068 0.4396,1.799572 0.4466,2.89761 0.024,3.78895 -2.4728,7.214529 -6.069,8.3253 -2.0421,0.63074 -2.0351,0.629978 -1.8705,0.204548 z m -1.2173,-0.79375 c -1.4734,-2.407289 -1.9975,-3.372558 -1.8282,-3.36697 0.1078,0.0036 0.6999,0.122752 1.3158,0.264876 0.8324,0.192078 1.3927,0.164404 2.1829,-0.107812 0.5993,-0.206484 1.0629,-0.255639 1.0629,-0.112696 0,0.273706 -2.1142,3.917914 -2.273,3.917914 -0.053,0 -0.26,-0.26789 -0.4604,-0.595312 z m -1.7008,-4.165758 c -3.6097997,-2.200965 -1.7926,-7.939892 2.4034,-7.590072 2.0765,0.173115 3.5788,1.634504 3.8126,3.708695 0.111,0.984801 0.01,1.429416 -0.5685,2.410001 -0.3876,0.661329 -1.0513,1.381673 -1.475,1.600764 -1.1018,0.569738 -3.1289,0.506876 -4.1725,-0.129388 z m 2.3175,-0.182814 c 0,-0.09976 -0.2531,-0.450891 -0.5626,-0.780288 -0.6898,-0.73424 -0.489,-1.49298 0.363,-1.371989 0.4252,0.06038 0.5905,0.255678 0.5755,0.680016 -0.024,0.666737 0.1598,0.747615 0.6296,0.277812 0.7655,-0.765564 -0.096,-1.872453 -1.3722,-1.762519 -0.9318,0.08028 -1.243,-0.278349 -0.5959,-0.686568 0.3054,-0.192608 0.5881,-0.174571 0.9663,0.06166 0.4763,0.297413 0.5645,0.255587 0.8071,-0.382609 0.1499,-0.394089 0.505,-0.879393 0.7892,-1.078453 0.2842,-0.199061 0.5155,-0.444474 0.514,-0.545363 0,-0.318719 -4.2863,-0.3343 -4.6686,-0.01699 -0.6101,0.506264 -0.3928,0.73233 0.5559,0.578382 1.0889,-0.176695 2.3492,0.0928 2.1256,0.454525 -0.088,0.141789 -0.4325,0.189218 -0.7665,0.105399 -1.0157,-0.254927 -1.5566,0.535971 -1.3533,1.978953 0.094,0.667817 0.2264,1.405546 0.294,1.639398 0.1631,0.563537 1.6989,1.330713 1.6989,0.848638 z m 0.6615,-6.653685 c 0,-0.47854 -0.5179,-0.391177 -0.6206,0.104691 -0.057,0.275885 0.042,0.396838 0.2646,0.322656 0.1958,-0.06527 0.356,-0.257573 0.356,-0.427347 z m -6.4706997,2.006424 c -0.3383,-0.618464 -0.8461,-1.511433 -1.1286,-1.984375 l -0.5136,-0.859896 h 2.4533997 c 2.0221,0 2.3756,0.05814 2.0113,0.330729 -0.8388,0.627487 -1.7758,2.155445 -1.7758,2.895674 0,1.045238 -0.3324,0.923874 -1.0466997,-0.382132 z m 10.3061997,0.529166 c -10e-4,-0.710163 -0.872,-2.206685 -1.6735,-2.876027 -0.316,-0.263893 -0.4554,-0.490028 -0.3099,-0.502523 0.7731,-0.06638 4.4211,-0.02657 4.4904,0.049 0.1298,0.141642 -2.0886,3.90675 -2.3076,3.916253 -0.1091,0.0047 -0.1989,-0.259278 -0.1994,-0.5867 z M 8.3279443,65.059849 c 0.5043,-0.794665 2.5256997,-2.258966 3.8585997,-2.795119 0.8246,-0.331742 1.9314,-0.517 3.129,-0.52376 2.343,-0.01323 4.58,0.92353 6.2368,2.611666 l 1.1485,1.170234 h -7.3334 c -6.9196997,0 -7.3167997,-0.02612 -7.0394997,-0.463021 z m -6.147,13.250872 c -0.6822,-0.181445 0.8266,-3.110398 1.8838,-3.657129 0.7838,-0.405308 0.8106,-0.398499 1.1221,0.28519 0.3412,0.748834 0.2823,0.834241 -1.396,2.022439 -0.5398,0.382174 -0.435,0.371205 0.6316,-0.06615 1.5825,-0.648846 1.5586,-0.649503 1.9984,0.05477 0.3229,0.517036 0.2982,0.630395 -0.2303,1.058334 -0.5671,0.459199 -2.79,0.626932 -4.0096,0.302546 z M 24.330244,78.101018 c -0.4515,-0.355554 -0.469,-0.476707 -0.1538,-1.065697 0.4172,-0.779542 0.5579,-0.80099 1.6269,-0.248154 1.1475,0.593359 1.2295,0.285018 0.1085,-0.407784 -1.071,-0.661899 -1.0497,-0.61309 -0.6092,-1.401253 0.1819,-0.325448 0.3522,-0.633089 0.3785,-0.683648 0.026,-0.05056 0.4108,0.122477 0.8544,0.384524 0.7938,0.468874 2.3398,3.168186 2.0059,3.502119 -0.087,0.08709 -0.9557,0.19495 -1.9301,0.239696 -1.2817,0.05885 -1.9126,-0.0296 -2.2811,-0.319803 z M 1.5295443,73.041429 c -0.7129,-0.375936 -1.3907,-0.774047 -1.5062,-0.884691 -0.2778,-0.266132 1.9972,-2.117249 2.9234,-2.37869 1.0295,-0.290593 1.3877,-0.08968 1.3877,0.778379 0,0.673676 -0.1227,0.783592 -1.1245,1.00795 l -1.1245,0.251819 1.0958,0.02833 c 0.9549,0.02469 1.1185,0.118685 1.2721,0.730841 0.3299,1.314548 -0.933,1.515865 -2.9238,0.466057 z M 26.076844,72.90166 c 0.081,-0.84949 0.1481,-0.903645 1.2763,-1.032695 l 1.1906,-0.136193 -1.1408,-0.200275 c -1.0921,-0.191716 -1.1373,-0.23678 -1.0583,-1.054433 0.075,-0.77885 0.1524,-0.846035 0.8762,-0.762037 0.9567,0.111024 1.072,0.175959 2.4856,1.399447 l 1.1119,0.962399 -1.2696,0.721789 c -0.6982,0.396984 -1.7843,0.78405 -2.4135,0.860145 l -1.144,0.138356 z M 3.2301443,68.661674 c -0.389,-0.14245 -1.1848,-0.891417 -1.7684,-1.664371 l -1.0611,-1.405372 1.6853,-0.456174 c 2.604,-0.704891 3.8574,-0.22275 2.998,1.153305 -0.2529,0.40493 -0.4561,0.452175 -1.1227,0.260993 -1.3979,-0.400911 -1.6615,-0.244631 -0.4867,0.288602 1.1834,0.537167 1.2114,0.581852 0.9577,1.52848 -0.1765,0.658524 -0.1954,0.663145 -1.2021,0.294537 z M 26.209544,68.78897 c -0.099,-0.09861 -0.1793,-0.492724 -0.1793,-0.8758 0,-0.558607 0.1872,-0.764215 0.9458,-1.038524 1.2002,-0.433982 1.0035,-0.682801 -0.2633,-0.333038 -0.8988,0.248184 -0.9776,0.219018 -1.3492,-0.49974 -0.3654,-0.70645 -0.3565,-0.78377 0.1186,-1.038029 0.2823,-0.151098 0.8571,-0.274723 1.2773,-0.274723 0.8904,0 3.3009,0.772766 3.1857,1.021269 -0.8232,1.776123 -3.1255,3.648749 -3.7356,3.038585 z M 5.0062443,63.946811 c -0.2577,-0.284747 -0.6783,-1.298943 -0.9346,-2.253769 l -0.4661,-1.736049 1.3566,0.164989 c 2.5839,0.314247 4.0335,1.515626 2.7817,2.305301 -0.4553,0.28715 -0.7707,0.195961 -1.8219,-0.526622 l -0.6615,-0.454681 0.6615,0.779379 c 0.3638,0.428658 0.7399,0.840291 0.8358,0.914741 0.214,0.166014 -0.6919,1.324432 -1.0357,1.324432 -0.136,0 -0.4581,-0.232975 -0.7158,-0.517721 z M 24.091244,63.835168 c -0.3871,-0.590755 -0.3727,-0.666624 0.2341,-1.236745 0.953,-0.895271 0.7861,-1.177696 -0.2354,-0.398514 l -0.882,0.672725 -0.5894,-0.627355 -0.5894,-0.627354 0.7206,-0.56682 c 0.7452,-0.586182 1.0421,-0.680442 2.9627,-0.940736 l 1.1375,-0.154153 -0.1809,0.997387 c -0.2785,1.535667 -0.9163,2.970051 -1.447,3.254064 -0.65,0.347854 -0.6613,0.344125 -1.1308,-0.372499 z M 8.6076443,60.374183 c -0.2633,-0.727963 -0.2675,-1.260084 -0.02,-2.517407 0.1725,-0.876879 0.389,-1.594326 0.4812,-1.594326 0.5581,0 2.9093997,1.936493 3.1982997,2.634086 0.3855,0.930675 0.3826,0.936988 -0.5347,1.156204 -0.5865,0.140152 -0.7532,0.01169 -1.3116,-1.010427 -0.7820997,-1.431864 -0.9327997,-1.385789 -0.4006,0.122546 0.5026,1.424587 0.4999,1.498458 -0.063,1.69711 -0.2547,0.08983 -0.5873,0.224515 -0.7392,0.299308 -0.1519,0.07479 -0.4264,-0.2794 -0.61,-0.787094 z m 12.1740997,0.573753 c -0.4852,-0.226735 -0.5862,-0.434579 -0.4694,-0.965842 0.082,-0.372315 0.2152,-0.974592 0.2964,-1.338394 0.091,-0.408434 -0.08,-0.228637 -0.4461,0.470024 -0.3778,0.720393 -0.7253,1.080873 -0.9565,0.992187 -0.1996,-0.07661 -0.5318,-0.139295 -0.7382,-0.139295 -0.5418,0 -0.4609,-0.878032 0.1529,-1.658346 0.5361,-0.68162 2.8607,-2.184741 3.0641,-1.981338 0.061,0.06113 0.1819,0.994356 0.2684,2.073847 0.1864,2.325854 -0.1376,3.030309 -1.1716,2.547157 z m -4.6072,-1.452467 c -0.6835,-0.08751 -0.7295,-0.176451 -0.7583,-1.464656 -0.031,-1.394823 -0.073,-1.346558 -0.3606,0.414449 -0.1446,0.886131 -0.2455,0.992188 -0.9437,0.992188 -0.7093,0 -0.7817,-0.08154 -0.7817,-0.880681 0,-0.780748 1.2248,-3.097258 1.8379,-3.476213 0.3653,-0.225739 1.918,2.250903 2.056,3.279218 0.1503,1.120679 0.011,1.271494 -1.0496,1.135695 z"
       style="fill:#53c8f4;fill-opacity:1"
       id="path1-3"
       inkscape:export-filename="Throat.svg"
       inkscape:export-xdpi="96"
       inkscape:export-ydpi="96" /><path
       d="m 15.19432,31.757323 -0.9947,-0.975547 0.5478,-0.495758 c 0.5843,-0.528784 0.612,-0.512918 1.343,0.769062 0.2588,0.453901 0.3195,0.42822 0.781,-0.330729 0.5727,-0.941771 0.6915,-0.978422 1.3218,-0.407974 0.4294,0.388597 0.387,0.480746 -0.6702,1.455209 -0.6207,0.572187 -1.1748,1.022553 -1.2313,1.000813 -0.056,-0.02174 -0.5503,-0.478525 -1.0974,-1.015076 z m -3.2135,-1.767049 c -0.5093,-1.231334 -0.429,-1.495053 0.5445,-1.788496 0.5324,-0.160502 0.5558,-0.110639 0.3586,0.764012 -0.2591,1.148563 -0.076,1.225457 0.3067,0.128604 0.2686,-0.770708 0.3038,-0.786761 0.78,-0.355867 0.6815,0.616749 0.6444,0.738408 -0.5006,1.645283 l -0.9991,0.791348 z m 7.3507,0.328411 -1.0908,-0.839504 0.5021,-0.620067 c 0.5684,-0.701953 0.5709,-0.700977 0.9842,0.380939 l 0.3032,0.79375 -0.1202,-1.005419 c -0.1116,-0.933896 -0.079,-0.992952 0.4606,-0.830159 0.9573,0.28884 1.0228,0.508143 0.5265,1.761292 l -0.4748,1.198671 z M 7.83102,29.43849 c -0.1928,-0.691224 -0.3914,-1.390602 -0.4412,-1.554174 -0.05,-0.163571 0.214,-0.355649 0.5864,-0.426839 0.6126,-0.117099 0.6927,-0.03202 0.8406,0.892716 0.09,0.562183 0.1941,1.022151 0.2317,1.022151 0.037,0 0.4007,-0.1725 0.8071,-0.383334 0.842,-0.436854 1.0526,-0.372758 1.2496,0.380315 0.1087,0.415635 -0.016,0.568408 -0.5634,0.687456 -0.3867,0.08418 -1.0483,0.262281 -1.4702,0.395771 -0.4219,0.13349 -0.7948,0.242709 -0.8285,0.242709 -0.034,0 -0.2192,-0.565547 -0.4121,-1.256771 z m 15.3038,0.894611 c -1.3308,-0.317127 -1.3991,-0.391158 -1.1697,-1.268196 l 0.1456,-0.556915 0.9416,0.555545 0.9416,0.555546 v -0.925422 c 0,-0.94659 0.4451,-1.3638 1.1616,-1.088839 0.3098,0.118863 0.2993,0.37414 -0.066,1.615311 -0.2387,0.810775 -0.4935,1.460216 -0.5663,1.443202 -0.073,-0.01701 -0.6975,-0.165618 -1.3883,-0.330232 z m -7.6592,-1.098544 c -0.5377,-0.49557 -1.1075,-1.143551 -1.2661,-1.439958 -0.2402,-0.44887 -0.2095,-0.538318 0.1839,-0.535309 1.1574,0.0089 1.6268,0.328094 1.88,1.278725 l 0.2575,0.966621 0.027,-0.866445 c 0.021,-0.673734 0.1782,-0.923835 0.706,-1.124479 1.7605,-0.669339 1.8941,-0.01992 0.3135,1.523711 l -1.1245,1.098171 z m -6.3719,-2.524764 c -0.2587,-0.878679 -0.4012,-1.709508 -0.3166,-1.846287 0.085,-0.136778 0.5112,0.01568 0.9483,0.338806 0.7695,0.568911 0.797,0.709112 0.3767,1.921074 -0.1387,0.399572 -0.029,0.34914 0.4489,-0.205926 0.6273,-0.729102 0.6407,-0.73165 1.6435,-0.312631 1.1997,0.501248 1.0091,0.84053 -0.6802,1.210787 -0.6361,0.139411 -1.3351,0.307093 -1.5534,0.372626 -0.2912,0.08743 -0.5221,-0.306173 -0.8672,-1.478449 z m 12.5436,1.199558 c -1.96,-0.477626 -2.1842,-0.786893 -0.9453,-1.304522 1.0037,-0.419371 1.0155,-0.417083 1.6176,0.312631 l 0.6066,0.735093 -0.3014,-0.904643 c -0.2819,-0.846214 -0.2517,-0.944432 0.4677,-1.520697 0.6793,-0.544118 0.7803,-0.563617 0.8648,-0.166984 0.1136,0.533091 -0.508,3.266725 -0.7333,3.224525 -0.086,-0.01609 -0.7954,-0.185023 -1.5767,-0.375403 z M 5.76062,26.136712 c 0.1202,-0.621496 0.2237,-1.219289 0.2301,-1.32843 0.016,-0.275729 1.599,-0.250842 1.599,0.02514 0,0.122967 -0.2381,0.439076 -0.5292,0.702465 -0.291,0.263389 -0.5291,0.601774 -0.5291,0.751967 0,0.150192 0.3571,-0.06913 0.7937,-0.487384 0.5893,-0.56456 0.7938,-0.651045 0.7938,-0.335724 0,0.233605 0.068,0.602312 0.1514,0.819349 0.1598,0.416539 -0.1131,0.54322 -1.7706,0.821702 l -0.9576,0.160908 z m 19.8208,0.885698 c -0.5093,-0.08998 -0.9142,-0.312435 -0.8996,-0.494336 0.014,-0.181902 0.044,-0.589609 0.066,-0.906017 l 0.04,-0.575287 0.6604,0.620428 c 0.3632,0.341235 0.7212,0.559697 0.7954,0.48547 0.074,-0.07423 -0.1039,-0.351117 -0.3958,-0.615314 -0.7307,-0.661273 -0.6652,-0.92751 0.2283,-0.92751 0.6717,0 0.778,0.114307 0.9231,0.992188 0.3006,1.818375 0.3807,1.738101 -1.4177,1.420378 z m -12.5469,-0.837044 c -3.7853,-1.338868 -6.1294,-4.148524 -6.8197,-8.174283 -0.7684,-4.480881 1.5635,-8.925093 5.7791,-11.014058 1.4106,-0.698991 1.7975,-0.767903 4.3326,-0.77163 2.6148,-0.0038 2.8906,0.04854 4.545,0.862997 7.8937,3.886036 7.8652,14.93668 -0.048,18.671507 -2.3034,1.087168 -5.4346,1.258206 -7.7889,0.425467 z m 6.9117,-1.097626 c 1.9484,-0.716821 3.8492,-2.523309 4.8991,-4.655923 0.7745,-1.573273 0.8676,-2.004186 0.868,-4.01765 4e-4,-2.677572 -0.7105,-4.50236 -2.5182,-6.463476 -2.6245,-2.847314 -7.4765,-3.727009 -10.9061,-1.977361 -1.639,0.836155 -3.5537,2.780909 -4.3637,4.432242 -0.6448,1.314437 -0.7292,1.782797 -0.7207,4.002189 0.011,2.960561 0.5025,4.305174 2.2753,6.228383 2.762,2.99644 6.5645,3.887113 10.4663,2.451596 z m -6.3205,-0.442104 c -3.3,-1.333559 -4.9803,-3.257398 -5.7667,-6.602628 -0.2618,-1.113397 -0.2638,-1.748414 -0.01,-3.039329 0.6011,-3.055315 2.0646,-5.022928 4.7024,-6.321807 1.5601,-0.768225 2.0284,-0.873069 3.8996,-0.873069 1.8688,0 2.3407,0.105345 3.8937,0.869131 1.8506,0.910207 2.8456,1.924361 3.9496,4.025661 0.5301,1.009163 0.6255,1.573712 0.6255,3.704166 0,2.94123 -0.4894,4.227504 -2.3183,6.093272 -2.2612,2.306732 -6.2289,3.254722 -8.9759,2.144603 z m 2.4307,-2.417041 c 0.291,-0.291042 0.5335,-0.856589 0.5388,-1.256771 0.019,-1.40862 3.0789,-3.033517 4.614,-2.44988 0.9572,0.363923 0.7692,1.049562 -0.3903,1.423575 -1.0836,0.349505 -1.3643,1.241937 -0.6417,2.040311 0.5761,0.636656 0.8284,0.640259 1.027,0.01466 0.086,-0.270976 0.5405,-0.602372 1.01,-0.736434 1.232,-0.351773 1.2413,-1.132527 0.03,-2.473722 -1.8661,-2.0655 -3.5621,-2.345941 -5.6863,-0.940221 -0.9418,0.623238 -1.0898,0.652613 -1.4539,0.288524 -0.3407,-0.340679 -0.3536,-0.548467 -0.081,-1.30225 0.2822,-0.780311 0.2568,-1.012504 -0.1951,-1.78634 -0.8659,-1.482534 -2.1012,-2.148416 -3.7413,-2.016753 -1.7404,0.139699 -2.0933,0.442411 -1.4468,1.240824 0.4474,0.55245 0.5681,0.574105 1.6203,0.290779 1.4325,-0.38574 2.68,-0.144873 2.68,0.517448 0,0.576483 -1.3646,1.788568 -2.2693,2.015632 -0.7586,0.190387 -0.7827,0.30226 -0.2032,0.942594 0.4821,0.532769 1.443,0.628678 2.2062,0.22022 1.1272,-0.603249 1.9264,0.663019 1.3289,2.105482 -0.2112,0.509845 -0.5744,0.829048 -1.0662,0.937066 -0.863,0.189561 -2.6845,-0.245249 -3.6766,-0.877686 -0.6518,-0.415442 -0.6671,-0.413778 -0.312,0.03392 1.5021,1.894114 4.9774,2.900491 6.1089,1.76902 z m 6.2032,-7.474479 c 1.0065,-0.885675 1.1404,-2.05325 0.342,-2.981459 l -0.6475,-0.752689 -0.1759,0.937781 c -0.2492,1.328383 -1.0249,1.936471 -2.4703,1.936471 -1.0983,0 -1.2807,-0.102779 -2.348,-1.322917 -0.6365,-0.727604 -1.1597,-1.201809 -1.1627,-1.053789 -0.01,0.48821 2.3297,2.949557 3.2212,3.388916 1.2397,0.610935 2.4379,0.554628 3.2412,-0.152314 z m -2.3901,-3.185783 c 0.4133,-0.655304 -0.435,-1.479344 -1.0217,-0.992425 -0.4928,0.408957 -0.5235,0.850214 -0.089,1.284328 0.3892,0.389227 0.7394,0.297223 1.111,-0.291903 z M 3.5764,25.045123 C 3.0427,24.87848 2.5232,24.659266 2.4221,24.55798 c -0.277,-0.277668 0.4122,-2.85916 0.7622,-2.854501 0.1674,0.0022 0.4685,0.10803 0.66922,0.235115 0.3062,0.19398 0.2956,0.369707 -0.066,1.094932 -0.2371,0.475128 -0.431,0.905107 -0.431,0.95551 0,0.0504 0.48902,0.09164 1.08662,0.09164 0.8822,0 1.0565,0.07875 0.9261,0.418514 -0.088,0.230183 -0.1606,0.52784 -0.1606,0.661459 0,0.300991 -0.3851,0.273729 -1.63202,-0.115528 z m 24.01772,-0.06004 c -0.2972,-0.774433 -0.165,-0.904402 0.9197,-0.904402 0.5943,0 1.0369,-0.0893 0.9837,-0.198438 -0.053,-0.10914 -0.2646,-0.534386 -0.47,-0.944989 -0.3229,-0.645665 -0.3217,-0.779199 0.01,-0.988136 0.21,-0.132871 0.5102,-0.243407 0.6671,-0.245636 0.3468,-0.0049 1.0012,2.664596 0.7131,2.908541 -0.1885,0.15954 -2.2022,0.791574 -2.5221,0.791574 -0.077,0 -0.2117,-0.188331 -0.3,-0.418514 z m -21.8828,-1.332946 -1.217,-0.373457 0.3322,-1.252641 c 0.6615,-2.494504 0.9485,-2.742676 1.4421,-1.247023 0.2801,0.848789 0.2526,0.977446 -0.3102,1.446405 -0.6552,0.546013 -0.2774,0.722869 0.5725,0.268009 0.4017,-0.215005 0.596,-0.120962 1.0409,0.503865 0.3009,0.422513 0.5471,0.839124 0.5471,0.9258 0,0.254498 -1.098,0.130924 -2.4076,-0.270958 z m 19.0763,0.19965 c 0,-0.125896 0.2456,-0.5411 0.5458,-0.922675 0.5297,-0.673403 0.5743,-0.682382 1.5213,-0.305797 l 0.9756,0.387976 -0.8449,-0.678304 c -0.8449,-0.678227 -0.8449,-0.678408 -0.414,-1.581968 0.6743,-1.414053 0.7944,-1.274532 1.5295,1.7764 0.1544,0.640636 0.068,0.729621 -1.0908,1.12448 -1.3926,0.474505 -2.2225,0.549145 -2.2225,0.199888 z M 2.8627,20.872989 C 1.6113,20.330444 1.6106,20.358702 2.9147,18.868287 3.4013,18.312091 3.4512,18.306186 4.03262,18.735995 l 0.6086,0.449889 -0.97312,0.456006 -0.973,0.456006 1.021,-0.160143 c 0.97942,-0.1536 1.01332,-0.134394 0.83022,0.470035 -0.292,0.963743 -0.4395,1.004502 -1.68342,0.465201 z m 25.52512,-0.121243 c -0.3051,-0.79513 -0.1633,-0.928776 0.8316,-0.783701 0.9616,0.140217 0.8764,0.05421 -0.4223,-0.426401 l -0.6208,-0.229722 0.6208,-0.503097 c 0.6905,-0.559668 0.9399,-0.449893 1.8357,0.808044 l 0.5287,0.742565 -0.9703,0.405413 c -1.2281,0.513122 -1.6025,0.510402 -1.8034,-0.0131 z M 4.67932,18.440282 C 4.46102,18.257738 3.93152,17.724447 3.5025,17.255191 L 2.7227,16.401999 3.88832,15.214255 c 0.6412,-0.65326 1.2929,-1.187744 1.4484,-1.187744 0.1701,0 0.2424,0.42112 0.1817,1.058333 -0.097,1.019743 -0.1356,1.058333 -1.0521,1.058333 -1.04852,0 -0.89042,0.425204 0.213,0.572909 0.554,0.07416 0.6748,0.249754 0.7435,1.080737 0.086,1.042464 -0.087,1.192478 -0.7435,0.643459 z m 22.5936,-0.06979 c 0.088,-0.230183 0.1606,-0.706433 0.1606,-1.058334 0,-0.501959 0.1391,-0.639818 0.6458,-0.639818 0.3552,0 0.7194,-0.119063 0.8094,-0.264584 0.095,-0.154364 -0.1737,-0.264583 -0.6459,-0.264583 -0.6796,0 -0.8093,-0.102555 -0.8093,-0.639819 0,-0.3519 -0.072,-0.82815 -0.1606,-1.058333 -0.3116,-0.812003 0.5798,-0.418277 1.7481,0.77211 l 1.1685,1.190625 -1.1685,1.190625 c -1.1683,1.190387 -2.0597,1.584114 -1.7481,0.772111 z m 2.9871,-0.182811 c -0.5363,-0.549381 -0.285,-1.09801 0.6369,-1.390633 0.7064,-0.224202 0.6313,-0.447973 -0.3353,-0.998225 l -0.8372,-0.476642 0.5511,-0.551158 0.5512,-0.551157 0.8831,1.005773 c 0.4857,0.553175 0.883,1.087378 0.883,1.187119 0,0.09974 -0.4167,0.650695 -0.926,1.224343 -0.9008,1.014537 -0.9392,1.02956 -1.4068,0.55058 z M 0.9506,17.447583 0,16.406407 1.0389,15.314262 c 0.9742,-1.024092 1.0664,-1.064229 1.4798,-0.644135 0.4119,0.418707 0.3922,0.490182 -0.3016,1.09282 l -0.7423,0.644811 0.7337,0.631154 c 0.632,0.543624 0.6846,0.690396 0.3793,1.058333 -0.4771,0.57484 -0.5432,0.548605 -1.6372,-0.649662 z m 1.6425,-3.86457 C 2.1534,13.049526 1.8416,12.535376 1.9002,12.440458 c 0.1409,-0.22787 2.22442,-0.912007 2.35062,-0.771835 0.054,0.05991 0.1828,0.384156 0.2863,0.720546 0.1788,0.581019 0.1374,0.604069 -0.82702,0.460752 l -1.0152,-0.150866 0.973,0.46529 0.97312,0.46529 -0.6242,0.461677 C 3.4029,14.545443 3.3796,14.537133 2.5931,13.583013 Z m 26.20402,0.443148 -0.6208,-0.522564 0.6208,-0.229721 c 1.2987,-0.480609 1.3839,-0.566618 0.4223,-0.426401 -1.0304,0.150255 -1.2497,-0.121066 -0.7438,-0.920512 0.2061,-0.325714 0.3957,-0.328477 1.3321,-0.01942 0.6006,0.198185 1.1424,0.442065 1.2041,0.541955 0.062,0.09989 -0.2716,0.613081 -0.7408,1.140423 l -0.8532,0.958803 z M 5.33222,12.637447 c -0.068,-0.181901 -0.2814,-0.94079 -0.4735,-1.686419 l -0.3492,-1.35569 1.3649,-0.430247 c 1.4776,-0.465782 2.2452,-0.545104 2.2431,-0.23181 -7e-4,0.10914 -0.2761,0.541931 -0.6121,0.961758 -0.5264,0.657916 -0.6883,0.721853 -1.1719,0.463021 -0.8572,-0.458775 -1.0685,-0.346757 -0.3655,0.193823 0.5898,0.453601 0.6064,0.540004 0.2775,1.449325 -0.358,0.990047 -0.6928,1.223278 -0.9133,0.636239 z m 21.2036,-0.529167 c -0.3517,-0.817257 -0.3353,-0.889349 0.33,-1.453894 0.7658,-0.649906 0.6886,-0.730089 -0.3303,-0.342704 -0.5661,0.215202 -0.7502,0.149242 -1.2079,-0.432557 -0.9879,-1.255921 -0.5073,-1.461647 1.6763,-0.717603 1.2034,0.410044 1.2458,0.459042 1.0866,1.256771 -0.2937,1.471609 -0.6918,2.549883 -0.9414,2.549883 -0.1338,0 -0.4098,-0.386953 -0.6133,-0.859896 z M 2.6721,10.123906 C 2.5741,9.578202 2.3898,8.931724 2.2638,8.687286 2.0719,8.314975 2.2748,8.172892 3.5177,7.811732 4.33342,7.574614 5.03272,7.417421 5.07172,7.462414 c 0.039,0.04499 0.1533,0.349695 0.254,0.677117 0.1882,0.612343 -0.1606,0.749588 -1.53562,0.604194 -0.2707,-0.02863 -0.4455,0.04696 -0.3884,0.16797 0.057,0.121013 0.2719,0.555971 0.47732,0.966575 0.3229,0.645665 0.3217,0.779199 -0.01,0.988136 -0.70732,0.44748 -1.01842,0.254703 -1.19852,-0.7425 z m 26.36392,0.7425 c -0.3302,-0.208937 -0.3314,-0.342471 -0.01,-0.988136 0.2053,-0.410604 0.4169,-0.835849 0.47,-0.944989 0.053,-0.109141 -0.3895,-0.198438 -0.9837,-0.198438 -1.0827,0 -1.3174,-0.2751 -0.8556,-1.002914 0.1756,-0.276746 0.4631,-0.278869 1.5173,-0.0112 0.7154,0.181639 1.341,0.355822 1.3904,0.387073 0.049,0.03125 -0.059,0.720901 -0.2406,1.532556 -0.3284,1.467553 -0.5598,1.687605 -1.2893,1.22605 z M 5.99072,8.011442 C 5.98072,7.89999 5.88082,7.300305 5.76062,6.678809 l -0.2185,-1.129993 0.9576,0.160909 c 1.6575,0.278482 1.9304,0.405163 1.7706,0.821702 -0.083,0.217037 -0.1514,0.585743 -0.1514,0.819349 0,0.315321 -0.2045,0.228836 -0.7938,-0.335725 -0.4366,-0.418253 -0.7937,-0.637575 -0.7937,-0.487383 0,0.150193 0.2381,0.488578 0.5291,0.751967 0.2911,0.263389 0.5292,0.554173 0.5292,0.646186 0,0.242237 -1.5853,0.327122 -1.599,0.085621 z m 2.8311,-0.190001 c -0.1031,-0.268636 0.3962,-2.421263 0.7524,-3.24404 0.049,-0.11348 2.7195,0.658794 3.1917,0.923051 0.43,0.240655 0.365,0.323206 -0.5588,0.709333 l -1.0455,0.436983 -0.6255,-0.7419 c -0.4554,-0.540176 -0.5731,-0.598018 -0.433,-0.212733 0.4332,1.191167 0.4034,1.351003 -0.3574,1.913428 -0.6154,0.454988 -0.8143,0.501474 -0.9239,0.215878 z m 14.2707,-0.233133 c -0.7194,-0.576266 -0.7496,-0.674483 -0.4677,-1.520697 l 0.3014,-0.904643 -0.6066,0.735093 c -0.5985,0.725455 -0.6194,0.729686 -1.5934,0.322722 -1.4451,-0.603767 -1.1551,-0.838376 1.9646,-1.589373 0.6408,-0.154264 0.7014,-0.07973 1.0217,1.255405 0.1873,0.780674 0.2975,1.621488 0.2448,1.868477 -0.085,0.396633 -0.1855,0.377134 -0.8648,-0.166984 z m 2.2243,0.385182 c 0,-0.127703 0.1786,-0.380406 0.3969,-0.561564 0.2183,-0.181157 0.3968,-0.454615 0.3968,-0.607684 0,-0.153069 -0.2829,-0.01244 -0.6288,0.312496 l -0.6289,0.590804 -0.1795,-0.715245 c -0.2253,-0.897403 -0.036,-1.065635 1.4023,-1.245744 l 1.1557,-0.144729 -0.1606,0.971197 c -0.088,0.534158 -0.1619,1.120025 -0.1635,1.301926 0,0.190441 -0.3396,0.330729 -0.7967,0.330729 -0.4365,0 -0.7937,-0.104484 -0.7937,-0.232186 z M 14.31352,4.89642 c 0.2537,-0.387079 0.8389,-1.043791 1.3005,-1.45936 l 0.8393,-0.755581 1.1244,1.097396 c 1.5807,1.542635 1.447,2.192268 -0.3135,1.522934 -0.5278,-0.200682 -0.6847,-0.45062 -0.7057,-1.12448 l -0.027,-0.866444 -0.2069,0.873322 c -0.2523,1.065637 -0.1758,1.000179 -1.4363,1.228423 l -1.0358,0.187569 z m -6.9302,0.06811 c 0.053,-0.181901 0.2565,-0.902946 0.4515,-1.602322 0.2783,-0.998758 0.4461,-1.234435 0.7822,-1.098409 0.2353,0.09525 0.8744,0.23666 1.4201,0.314243 0.8194,0.11649 0.9922,0.247479 0.9922,0.752064 0,0.826532 -0.296,0.951738 -1.1737,0.496404 -0.9351,-0.485111 -0.943,-0.484068 -0.943,0.124193 0,0.27914 -0.072,0.695858 -0.1606,0.926041 -0.191,0.497678 -1.5138,0.582524 -1.3687,0.08779 z m 16.6106,-0.595313 c 0,-0.870291 -0.3193,-1.215043 -0.642,-0.69305 -0.079,0.128145 -0.433,0.288251 -0.7863,0.35579 -0.5112,0.09772 -0.6666,-0.0038 -0.7609,-0.497272 -0.1028,-0.537785 0.026,-0.657311 0.9692,-0.900705 0.5982,-0.154349 1.2663,-0.331526 1.4846,-0.393728 0.2865,-0.08164 0.5154,0.288681 0.823,1.331432 0.469,1.589682 0.4324,1.723575 -0.4703,1.723575 -0.5291,0 -0.6173,-0.132292 -0.6173,-0.926042 z m -11.8585,0.117248 c -0.6449,-0.258606 -0.6389,-0.470381 0.06,-2.133016 l 0.3057,-0.727023 1.05,0.890487 1.0499,0.890487 -0.5653,0.575834 -0.5653,0.575833 -0.3209,-0.972548 c -0.4043,-1.225067 -0.5751,-1.10689 -0.2815,0.194814 0.2377,1.053723 0.2079,1.082331 -0.7327,0.705132 z m 7.7678,-0.699329 0.1137,-1.005419 -0.2987,0.859896 c -0.3523,1.014022 -0.5014,1.056372 -0.9862,0.280151 -0.3303,-0.528991 -0.2892,-0.644808 0.4697,-1.322917 0.4575,-0.408744 0.936,-0.743171 1.0635,-0.743171 0.3373,0 1.1485,2.159816 0.898,2.390836 -0.1166,0.107537 -0.4734,0.274389 -0.7929,0.370782 -0.5388,0.162581 -0.5726,0.102516 -0.4671,-0.830158 z m -5.3115,-1.244229 c -0.4845,-0.354223 -0.4551,-0.420491 0.6455,-1.457004 L 16.39022,0 l 1.1306,1.042137 c 1.0589,0.976131 1.1015,1.068414 0.6721,1.457005 -0.6192,0.560377 -0.6825,0.539807 -1.2894,-0.418689 l -0.5278,-0.833556 -0.431,0.833556 c -0.4851,0.938087 -0.6333,0.988731 -1.353,0.462454 z"
       style="fill:#c14798;fill-opacity:1"
       id="path1-4"
       inkscape:export-filename="Crown.svg"
       inkscape:export-xdpi="96"
       inkscape:export-ydpi="96" /><path
       d="m 15.3528,117.6712 c -0.1511,-0.2823 -0.4288,-0.67139 -0.6171,-0.86464 -0.7293,-0.74849 -1.5132,-2.29898 -1.5132,-2.99313 0,-0.62505 0.084,-0.70482 0.5953,-0.5677 0.3274,0.0877 0.7883,0.16117 1.0242,0.16315 0.3265,0.003 0.4791,0.39813 0.6396,1.65726 l 0.2107,1.65365 0.2395,-1.62442 c 0.2249,-1.52523 0.2885,-1.63421 1.0413,-1.78476 0.4409,-0.0882 0.9085,-0.0943 1.0391,-0.0136 0.5802,0.35858 0.036,1.71586 -1.4879,3.71262 -0.8255,1.08136 -0.9187,1.13402 -1.1715,0.66159 z m -7.79591,-3.68239 c -0.16705,-1.69529 0.0512,-2.99138 0.55631,-3.30355 0.11819,-0.073 0.55281,0.13664 0.96582,0.46596 L 9.83,111.75 9.12725,113.13672 c -0.38649,0.7627 -0.65821,1.43123 -0.60381,1.48562 0.0544,0.0544 0.54196,-0.49457 1.08346,-1.21992 l 0.9846,-1.31882 0.7864,0.40666 c 1.3889,0.71824 0.8944,1.49385 -1.6776,2.63131 -0.83589,0.3697 -1.62014,0.67218 -1.74271,0.67218 -0.12256,0 -0.30288,-0.81223 -0.4007,-1.80494 z m 14.00011,1.15372 c -2.2559,-1.03653 -2.8583,-2.07981 -1.5314,-2.65228 l 0.8498,-0.36667 0.9587,1.30592 c 0.5272,0.71825 1.0014,1.30591 1.0538,1.30591 0.052,0 -0.1959,-0.65824 -0.5517,-1.46275 -0.3558,-0.80451 -0.6469,-1.4965 -0.6469,-1.53774 0,-0.0413 0.3536,-0.33645 0.7859,-0.65601 l 0.7858,-0.58102 0.4189,0.80996 c 0.2961,0.57266 0.3717,1.17403 0.258,2.05262 -0.3601,2.78194 -0.301,2.73774 -2.3809,1.78206 z m -8.7313,-2.8796 C 6.83212,110.2765 3.89639,104.32069 6.07055,98.558469 6.97282,96.167184 8.70901,94.265308 11.0425,93.11204 c 1.9318,-0.954767 2.137,-0.998535 4.6799,-0.998535 2.3356,0 2.845,0.08688 4.1816,0.713287 6.72047,3.149462 8.23557,11.883678 2.9316,16.899998 -2.0378,1.92735 -3.9117,2.71269 -6.7026,2.80916 -1.3682,0.0473 -2.6634,-0.0596 -3.3073,-0.27302 z m 6.6464,-1.35963 c 4.3423,-1.93944 6.57617,-6.73411 5.2376,-11.241737 -0.7963,-2.681475 -2.6759,-4.807263 -5.3214,-6.018401 -2.1542,-0.986218 -5.1722,-0.968886 -7.4151,0.04259 -1.9332,0.871743 -4.0422,2.949469 -4.91673,4.843697 -0.83026,1.798321 -0.83232,5.738451 -0.004,7.532191 0.72197,1.56331 2.77913,3.78657 4.17923,4.51663 2.5276,1.31807 5.7338,1.44453 8.2403,0.32504 z m -6.4347,-0.36474 c -2.0432,-0.70596 -4.3127,-2.41992 -4.3127,-3.25693 0,-0.10575 0.92,-0.16856 2.0444,-0.13956 l 2.0444,0.0527 0.9821,1.5875 c 0.9588,1.54986 1.2166,2.25775 0.8161,2.24032 -0.1092,-0.005 -0.8176,-0.22257 -1.5743,-0.48405 z m 4.1425,-0.99834 c 1.3844,-2.47767 1.4203,-2.50189 3.6324,-2.4506 1.0644,0.0247 1.9353,0.12789 1.9353,0.22936 0,0.10147 -0.4384,0.62291 -0.9743,1.15877 -1.0432,1.04321 -3.0888,2.13449 -4.5582,2.43167 l -0.9022,0.18248 z m -2.4479,-0.60555 c -0.5226,-0.87723 -0.8425,-1.66149 -0.7109,-1.7428 0.1315,-0.0813 1.0166,-0.12644 1.9668,-0.10029 l 1.7276,0.0475 -0.8309,1.48305 c -0.457,0.81567 -0.9146,1.57854 -1.0167,1.69526 -0.1022,0.11673 -0.6133,-0.50551 -1.1359,-1.38275 z M 8.73068,106.2026 c 0.003,-0.1819 0.40355,-0.96929 0.88952,-1.74975 l 0.8835,-1.41902 0.8303,1.45123 c 0.4566,0.79817 0.8303,1.58556 0.8303,1.74975 0,0.19102 -0.6193,0.29852 -1.7198,0.29852 -1.20264,0 -1.718,-0.0994 -1.71382,-0.33073 z m 3.36932,-1.77541 -1.255,-2.10316 0.5791,-0.98141 c 0.3184,-0.53977 0.6223,-0.85147 0.6752,-0.69266 0.058,0.17404 0.4579,0.23005 1.0067,0.141 0.8442,-0.13699 0.9104,-0.0971 0.9104,0.54835 0,0.56609 -0.1236,0.69608 -0.6615,0.69608 -0.9351,0 -0.8694,0.89107 0.14,1.90049 0.6534,0.65341 0.9711,0.78165 1.7198,0.69424 0.6318,-0.0738 0.9183,3e-5 0.9183,0.23654 0,0.36758 0.9266,1.40169 1.2568,1.40268 0.1091,3.3e-4 0.1607,-1.12279 0.1146,-2.49582 -0.075,-2.23444 -0.027,-2.5538 0.463,-3.04332 0.3008,-0.3008 0.5467,-0.6362 0.5465,-0.745337 -8e-4,-0.36829 -5.5804,-0.37451 -6.0331,-0.007 -0.2653,0.215567 -0.1868,-0.0722 0.2174,-0.796757 l 0.6328,-1.134194 2.4028,0.0406 2.4028,0.0406 1.1149,1.944938 c 0.6132,1.06973 1.1149,2.08314 1.1149,2.25202 0,0.36528 -1.5005,3.08458 -2.0665,3.74494 -0.321,0.37453 -0.8314,0.46273 -2.6709,0.46152 l -2.2741,-0.002 z m 5.3559,-5.434514 c 0,-0.218287 -0.1785,-0.396877 -0.3968,-0.396877 -0.2183,0 -0.3969,0.17859 -0.3969,0.396877 0,0.21828 0.1786,0.39687 0.3969,0.39687 0.2183,0 0.3968,-0.17859 0.3968,-0.39687 z m 1.5875,7.422534 c 0,-0.065 0.4324,-0.85581 0.9608,-1.75745 l 0.9608,-1.63934 0.888,1.55902 c 0.4884,0.85746 0.8895,1.64831 0.8913,1.75745 0,0.10914 -0.8301,0.19844 -1.8488,0.19844 -1.0186,0 -1.8521,-0.0531 -1.8521,-0.11812 z M 7.37937,104.74738 c -0.44013,-1.55476 -0.39973,-3.8279 0.0927,-5.213957 l 0.37186,-1.046734 1.11353,1.906631 1.11354,1.90665 -1.08167,1.8521 c -0.59493,1.01865 -1.12049,1.85209 -1.16791,1.85209 -0.0474,0 -0.24634,-0.56555 -0.44201,-1.25678 z m 15.00573,-0.66146 -1.0196,-1.91824 1.0658,-1.80997 c 1.0338,-1.755741 1.0756,-1.791451 1.3964,-1.192164 0.4893,0.914324 0.6331,4.253964 0.2432,5.646794 -0.1836,0.6555 -0.4086,1.19182 -0.5,1.19182 -0.091,0 -0.6251,-0.86321 -1.1858,-1.91824 z m -8.3026,-0.63825 c -0.4563,-0.18413 -0.4164,-0.61853 0.057,-0.61853 0.5239,0 1.0031,-0.95714 0.7999,-1.5975 -0.2251,-0.70907 0.8055,-0.71551 1.1845,-0.007 0.8367,1.56351 -0.3833,2.89243 -2.0412,2.22343 z M 9.5732,100.0254 C 9.10651,99.212926 8.7247,98.439839 8.7247,98.307402 c 0,-0.13242 0.8448,-0.24077 1.8773,-0.24077 h 1.8774 l -0.8481,1.521351 c -0.4665,0.836747 -0.9295,1.609847 -1.0289,1.717997 -0.099,0.10815 -0.5626,-0.46811 -1.0292,-1.28058 z m 10.4297,-0.0115 c -0.5277,-0.843624 -0.9595,-1.626888 -0.9595,-1.740578 0,-0.1137 0.8335,-0.20672 1.8521,-0.20672 1.0187,0 1.8485,0.0893 1.8441,0.19844 0,0.10914 -0.4061,0.892404 -0.8926,1.740578 l -0.8847,1.54214 z M 8.7247,97.243068 c 0,-0.11943 0.43619,-0.653327 0.9693,-1.186444 0.9996,-0.999594 3.0006,-2.038733 4.5369,-2.356088 l 0.876,-0.180956 -0.854,1.54592 c -1.3782,2.494585 -1.3923,2.504175 -3.5962,2.445845 -1.0626,-0.0281 -1.932,-0.14885 -1.932,-0.268277 z m 5.6876,-1.010914 c 1.23,-2.396115 1.2616,-2.406374 2.226,-0.720837 0.4691,0.819814 0.7803,1.607861 0.6918,1.751201 -0.089,0.143337 -0.9209,0.241997 -1.8496,0.219247 l -1.6884,-0.0414 z m 3.0745,-0.587547 c -0.6027,-1.041068 -1.0436,-1.945052 -0.9798,-2.008853 0.064,-0.0638 0.7719,0.0747 1.5737,0.307773 1.7957,0.522027 4.6241,2.583574 4.6585,3.395491 0,0.109147 -0.9287,0.198437 -2.074,0.198437 H 18.5827 Z M 2.97001,110.31067 c -0.47294,-0.0587 -0.85989,-0.16131 -0.85989,-0.22805 0,-0.55169 1.65054,-3.56345 2.14125,-3.90716 0.84689,-0.59318 0.93667,-0.5636 1.28707,0.42401 0.28233,0.79574 0.25147,0.89937 -0.4136,1.38906 -0.39528,0.29104 -1.02694,0.79771 -1.40369,1.12594 -0.67122,0.58477 -0.65573,0.58349 0.77022,-0.0636 1.82067,-0.82617 1.9519,-0.82409 2.51811,0.0401 0.44173,0.67417 0.44083,0.72126 -0.0201,1.05833 -0.45942,0.33594 -2.08635,0.40126 -4.01933,0.16138 z m 21.51209,-0.14828 c -0.4916,-0.37261 -0.4943,-0.4207 -0.06,-1.08345 0.542,-0.82726 0.7519,-0.8415 2.26757,-0.15386 0.6401,0.29044 1.2054,0.48646 1.2563,0.43561 0.051,-0.0509 -0.4431,-0.47709 -1.0977,-0.94719 -1.29977,-0.93343 -1.33387,-1.0107 -0.8832,-2.00002 0.3615,-0.79334 0.4409,-0.80886 1.2476,-0.24385 0.559,0.39159 2.2966,3.74437 2.0621,3.97893 -0.055,0.0547 -1.0397,0.16796 -2.1888,0.25163 -1.61297,0.11743 -2.20667,0.0632 -2.60377,-0.2378 z M 2.60925,104.21682 C 0.80236,103.01058 0,102.42114 0,102.29997 c 0,-0.12116 0.80236,-0.7106 2.60925,-1.91684 0.38032,-0.2539 1.01892,-0.462257 1.4191,-0.463027 0.65106,-10e-4 0.7276,0.0931 0.7276,0.896347 0,1.0366 -0.30241,1.21894 -2.02163,1.21894 -0.72236,0 -1.12079,0.10324 -1.02108,0.26458 0.0899,0.14553 0.62301,0.26459 1.1846,0.26459 1.54729,0 1.85811,0.2039 1.85811,1.21894 0,0.8033 -0.0765,0.89759 -0.7276,0.89634 -0.40018,-7.6e-4 -1.03878,-0.20912 -1.4191,-0.46302 z m 24.05712,-0.39548 c 0.1523,-1.06455 0.4183,-1.24761 1.8203,-1.25273 0.6099,-0.002 1.1824,-0.12311 1.2724,-0.26864 0.1,-0.16134 -0.2987,-0.26458 -1.0211,-0.26458 -1.7192,0 -2.0216,-0.18234 -2.0216,-1.21894 0,-0.8033 0.077,-0.897587 0.7276,-0.896347 0.4001,7.7e-4 1.0387,0.209127 1.4191,0.463027 1.8069,1.20624 2.6092,1.79568 2.6092,1.91684 0,0.12117 -0.8023,0.71061 -2.6092,1.91685 -0.3804,0.2539 -1.0579,0.46226 -1.5056,0.46302 -0.7675,0.001 -0.807,-0.0478 -0.6911,-0.8585 z M 4.00204,98.132782 c -0.73249,-0.699177 -2.03721,-3.448636 -1.76547,-3.72038 0.0724,-0.0724 1.13825,-0.143014 2.36856,-0.156928 2.6187,-0.02961 3.11425,0.235871 2.36343,1.266183 -0.60207,0.826184 -0.87902,0.844074 -2.24879,0.14527 -1.50549,-0.768047 -1.5597,-0.459357 -0.0962,0.547587 0.90595,0.623304 1.18036,0.959404 1.04691,1.282271 -0.0995,0.24066 -0.24075,0.645917 -0.31398,0.900577 -0.18343,0.637964 -0.46698,0.582574 -1.35449,-0.26458 z m 21.96303,0.0537 c -0.45077,-0.989324 -0.41667,-1.066594 0.8831,-2.000028 0.6546,-0.470097 1.1486,-0.896327 1.0977,-0.947177 -0.051,-0.0509 -0.6162,0.14517 -1.2563,0.4356 -1.48237,0.672554 -1.58997,0.664264 -2.19787,-0.16919 -0.4968,-0.681137 -0.4968,-0.698377 0,-1.074636 0.3804,-0.288095 1.0156,-0.349523 2.57587,-0.249101 1.139,0.07331 2.124,0.186315 2.1888,0.25112 0.2481,0.248087 -1.4597,3.588122 -2.0438,3.997259 -0.8066,0.565007 -0.886,0.549487 -1.2475,-0.243847 z M 7.88896,93.647521 C 7.53592,93.219262 7.43865,89.210324 7.77318,88.875789 c 0.26463,-0.264623 3.59752,1.296414 4.00252,1.874689 0.5375,0.767354 0.4998,0.895047 -0.4019,1.361353 L 10.5833,92.52062 9.6211,91.181365 c -0.52918,-0.73659 -1.0149,-1.286514 -1.07936,-1.222053 -0.0645,0.06446 0.18846,0.720394 0.56205,1.457631 0.37361,0.737236 0.67921,1.381528 0.67921,1.431759 0,0.05023 -0.3463,0.347375 -0.76956,0.660319 -0.70461,0.520936 -0.79957,0.532632 -1.12448,0.1385 z M 22.401,93.470427 21.6575,92.862004 22.3203,91.363276 c 0.3645,-0.824301 0.6199,-1.498729 0.5676,-1.498729 -0.052,0 -0.5241,0.584217 -1.0482,1.29826 -0.9184,1.251088 -0.9817,1.287435 -1.7424,1.000327 -0.9407,-0.355081 -1.0078,-0.944161 -0.194,-1.703443 0.6617,-0.617346 3.2952,-1.73307 3.6188,-1.533119 0.4369,0.270029 0.5534,3.324258 0.1625,4.25983 -0.2094,0.501313 -0.4167,0.907196 -0.4605,0.901963 -0.044,-0.0052 -0.4142,-0.283306 -0.8231,-0.617938 z m -8.9938,-2.186541 c -0.4501,-0.45017 -0.095,-1.482788 1.0404,-3.025087 l 1.2249,-1.66396 0.7772,0.90725 c 0.998,1.16503 1.8481,2.987597 1.6429,3.522394 -0.098,0.254925 -0.3804,0.3748 -0.7289,0.309284 -0.3131,-0.05884 -0.7076,-0.115829 -0.8768,-0.126642 -0.1707,-0.01091 -0.4161,-0.755964 -0.5511,-1.673307 l -0.2434,-1.653646 -0.2107,1.653646 c -0.17,1.333734 -0.3023,1.653645 -0.6841,1.653645 -0.2604,0 -0.6382,0.06323 -0.8396,0.14052 -0.2014,0.07729 -0.4492,0.05744 -0.5508,-0.0441 z"
       style="fill:#63bc68;fill-opacity:1"
       id="path1-31"
       inkscape:export-filename="Heart.svg"
       inkscape:export-xdpi="96"
       inkscape:export-ydpi="96" /><path
       d="m 14.24652,151.16265 c -1.3773,-1.67099 -2.0851,-2.91359 -2.0851,-3.66088 0,-0.6729 0.077,-0.74583 0.6615,-0.62454 0.3638,0.0755 0.9506,0.19699 1.3039,0.2699 0.5603,0.1156 0.6671,0.32715 0.8351,1.65364 0.2083,1.64549 0.2476,1.62607 0.4995,-0.2468 0.1524,-1.13288 0.2389,-1.25324 1.013,-1.40881 0.4655,-0.0936 1.0548,-0.22877 1.3094,-0.30047 0.6384,-0.17974 0.6237,1.09477 -0.025,2.15425 -0.5683,0.92853 -2.439,3.05138 -2.6644,3.0236 -0.085,-0.0105 -0.4669,-0.39745 -0.8481,-0.85989 z m -8.5390997,-2.45002 c -0.088,-0.23019 -0.1606,-1.34809 -0.1606,-2.48423 0,-1.57416 0.1104,-2.20197 0.4637,-2.63827 l 0.4636,-0.57255 0.9049,0.9336 0.9049,0.93361 -0.7303,1.39557 -0.7303,1.39557 1.1194,-1.15484 1.1195,-1.15484 0.9542997,0.54389 c 1.8216,1.03813 1.1816,1.84721 -2.1443997,2.71107 -1.0606,0.27547 -1.9454,0.5029 -1.9662,0.5054 -0.021,0.002 -0.1101,-0.1838 -0.1985,-0.41398 z M 22.23102,148.57776 c -1.7668,-0.45589 -3.1904,-1.28966 -3.1904,-1.86861 0,-0.1172 0.4996,-0.46795 1.1101,-0.77944 l 1.1102,-0.56635 0.8778,0.95785 c 0.4828,0.52682 0.9342,0.95785 1.0031,0.95785 0.069,0 -0.131,-0.52743 -0.4442,-1.17207 l -0.5694,-1.17206 0.8243,-0.93885 c 0.7441,-0.8475 0.8642,-0.89899 1.234,-0.52922 0.2252,0.22529 0.483,0.70208 0.5727,1.05954 0.193,0.76895 -0.1288,4.61489 -0.3833,4.58207 -0.097,-0.0125 -1.0619,-0.25129 -2.1449,-0.53071 z m -10.3703,-2.50703 c -2.9428997,-0.90605 -5.5655997,-3.57935 -6.5669997,-6.69347 -1.1661,-3.6267 -0.2423,-7.78457 2.3197,-10.44023 1.2455,-1.29095 3.8081997,-2.71653 5.3417997,-2.97144 5.8144,-0.96647 10.8699,2.18288 12.3403,7.68743 0.4948,1.85235 0.4455,3.50279 -0.1635,5.47465 -1.0044,3.25178 -3.6932,6.03019 -6.7347,6.95913 -1.6188,0.4944 -4.9049,0.48632 -6.5366,-0.0161 z m 7.6827,-1.70756 c 3.7767,-2.01698 5.7079,-6.27939 4.677,-10.32289 -1.1747,-4.60791 -4.9192,-7.35867 -9.6367,-7.07926 -3.5576,0.21071 -6.1880997,1.9643 -7.7703997,5.1799 -0.7924,1.61055 -0.8686,1.97901 -0.8584,4.15326 0.01,2.06438 0.1076,2.5718 0.7271,3.76521 1.3043,2.51275 3.2265,4.23041 5.6116997,5.01459 0.6383,0.20982 1.9511,0.3173 3.3073,0.27074 1.9723,-0.0677 2.4573,-0.18846 3.9424,-0.98155 z m -6.9906,0.16587 c -2.2617,-0.70869 -4.0593997,-2.26468 -5.2292997,-4.52602 -0.7115,-1.37538 -0.8232,-1.87034 -0.8359,-3.70417 -0.013,-1.92195 0.4256,-3.84028 0.8773,-3.83423 0.091,0.001 0.4746,0.56677 0.8514,1.25677 0.3767,0.69 1.8943997,3.33814 3.3723997,5.88475 1.478,2.54661 2.6878,4.77904 2.6884,4.96094 10e-4,0.40289 -0.3413,0.39534 -1.7243,-0.038 z m 3.3128,0.25959 c 0,-0.0924 0.9147,-1.74279 2.0326,-3.66746 1.118,-1.92467 2.5467,-4.42363 3.1749,-5.55324 1.9992,-3.59497 2.0078,-3.6029 2.4226,-2.24564 0.5155,1.68649 0.5981,2.89984 0.2984,4.38275 -0.7269,3.59654 -3.5165,6.43948 -6.9363,7.06901 -0.5457,0.10046 -0.9922,0.10702 -0.9922,0.0146 z m -1.6228,-1.68057 c -0.3832,-0.68913 -1.9621,-3.44437 -3.5087,-6.12275 -1.5464997,-2.67839 -2.7689997,-4.91276 -2.7163997,-4.96527 0.053,-0.0525 3.3098997,-0.0637 7.2386997,-0.025 l 7.1431,0.0705 -1.1355,1.98437 c -0.6246,1.09141 -1.3561,2.40109 -1.6256,2.91042 -0.4259,0.80495 -2.9064,5.07855 -3.9544,6.81302 -0.1979,0.32742 -0.4463,0.59359 -0.5521,0.5915 -0.1058,-0.002 -0.5059,-0.56765 -0.8891,-1.25677 z m 1.5727,-2.56779 c -0.7005,-0.60697 -0.7036,-0.62379 -0.1984,-1.08094 0.419,-0.37924 0.5131,-0.82064 0.5131,-2.40774 v -1.94337 h 0.7408 c 0.6882,0 1.3759,-0.40418 1.3759,-0.80866 0,-0.28702 -5.6466,-0.48455 -6.15,-0.21515 -0.2555,0.13677 -0.4649,0.39332 -0.4652,0.5701 -4e-4,0.22835 0.4976,0.29573 1.7198,0.2327 l 1.7204,-0.0887 0.022,1.01476 c 0.012,0.55812 0.057,1.31242 0.099,1.67622 0.1574,1.35762 -0.935,2.12241 -1.7055,1.194 -0.4742,-0.57137 -0.127,-1.194 0.6659,-1.194 0.3896,0 0.6148,-0.1142 0.5219,-0.26458 -0.2274,-0.36786 -1.5469,-0.33171 -1.9315,0.0529 -0.4879,0.48787 -0.3771,1.73959 0.2056,2.32223 0.2877,0.28769 0.9128,0.68596 1.3891,0.88506 0.4762,0.19909 1.0335,0.56407 1.2384,0.81106 0.2725,0.32862 0.4499,0.37016 0.6614,0.15487 0.21,-0.21373 0.094,-0.46284 -0.4225,-0.91076 z m 0.447,-7.54871 c 0,-0.2143 -0.2084,-0.42976 -0.463,-0.4788 -0.3249,-0.0626 -0.4631,0.0803 -0.4631,0.4788 0,0.3985 0.1382,0.54136 0.4631,0.4788 0.2546,-0.049 0.463,-0.26451 0.463,-0.4788 z m -8.0697997,-1.96189 c 0,-0.63084 2.3530997,-2.48747 3.8735997,-3.05638 3.0402,-1.13746 6.7737,-0.42354 9.0148,1.7238 0.624,0.5979 1.1345,1.22656 1.1345,1.39703 0,0.22906 -1.8295,0.30994 -7.0114,0.30994 -5.8688997,0 -7.0114997,-0.061 -7.0114997,-0.37439 z m -5.0264,11.37576 c -0.5093,-0.20491 -1.3981,-0.54888 -1.9751,-0.76439 -0.57700001,-0.21551 -1.07740001,-0.49363 -1.11200001,-0.61805 -0.1349,-0.48505 2.48140001,-3.93682 3.16680001,-4.17809 0.3871,-0.13623 0.7544,-0.19576 0.8164,-0.13229 0.062,0.0635 0.1943,0.66365 0.294,1.33373 l 0.1814,1.21833 -1.0827,0.43318 c -0.5954,0.23824 -1.0826,0.49777 -1.0826,0.57672 0,0.079 0.5718,0.0677 1.2705,-0.025 l 1.2705,-0.16854 0.4907,1.08816 c 0.2699,0.59849 0.4336,1.14525 0.3639,1.21501 -0.3416,0.34153 -1.7766,0.35323 -2.6018,0.0212 z M 24.81832,142.5208 c -0.4048,-0.24816 -0.3941,-0.35758 0.1323,-1.34609 l 0.573,-1.07597 1.2799,0.16276 c 1.4735,0.18737 1.481,-0.18077 0.014,-0.66506 l -0.948,-0.31288 0.1827,-1.22777 c 0.1005,-0.67528 0.2256,-1.27184 0.278,-1.3257 0.052,-0.0538 0.402,-0.0209 0.777,0.0732 0.4772,0.11978 1.0722,0.78316 1.9833,2.21133 l 1.3015,2.04021 -1.619,0.73491 c -1.8689,0.84836 -3.324,1.11738 -3.9543,0.73106 z M 2.2715203,134.75904 c -0.4538,-0.4831 -0.9985,-1.22724 -1.2105,-1.65365 -0.21200001,-0.42641 -0.55850001,-0.98438 -0.77010001,-1.23993 -0.2115,-0.25556 -0.3357,-0.50886 -0.2759,-0.5629 0.06,-0.054 0.98610001,-0.4806 2.05850001,-0.94791 1.4842,-0.64672 2.1636,-0.80959 2.8443,-0.68189 1.0404,0.19519 1.0728,0.34413 0.3732,1.71552 -0.5194,1.01806 -0.5248,1.02065 -1.6246,0.77354 -1.6228,-0.36461 -1.8299,-0.13956 -0.3808,0.41385 1.2426,0.47457 1.2597,0.49679 1.1035,1.44113 -0.087,0.52752 -0.16,1.10796 -0.1616,1.28986 -0.01,0.63901 -1.1397,0.3215 -1.956,-0.54762 z m 23.7655997,-0.3245 c -0.099,-0.66156 -0.1363,-1.24193 -0.082,-1.28971 0.054,-0.0478 0.5743,-0.33907 1.1564,-0.64733 l 1.0583,-0.56047 -1.3229,0.14891 c -1.2719,0.14316 -1.3408,0.11676 -1.786,-0.68481 -0.6445,-1.1606 -0.5818,-1.51643 0.3015,-1.71043 0.9808,-0.21542 5.1599,1.32722 4.876,1.7999 -2.6256,4.37115 -3.8575,5.23444 -4.2009,2.94394 z M 5.9787203,128.72688 c -0.3185,-0.4546 -0.4312,-1.21859 -0.4312,-2.92229 0,-1.26872 0.089,-2.36158 0.1985,-2.42858 0.3145,-0.19308 3.99,0.79406 4.7077997,1.2644 0.9729,0.63746 0.8136,1.26872 -0.4546997,1.80175 l -1.0993,0.46201 -0.8822,-0.99118 c -1.0217,-1.14795 -1.1278,-0.97031 -0.3,0.50248 l 0.5826,1.03655 -0.9452,0.94519 -0.9452,0.94519 z M 23.07622,128.48966 c -0.4729,-0.43025 -0.8599,-0.92231 -0.8599,-1.09348 0,-0.17117 0.3132,-0.85745 0.696,-1.52508 l 0.6961,-1.21387 -1.1654,1.12087 -1.1654,1.12087 -1.1181,-0.55321 c -0.615,-0.30426 -1.1182,-0.63907 -1.1182,-0.74402 0,-0.52688 1.3762,-1.3453 2.9104,-1.73084 0.9459,-0.2377 1.9171,-0.48995 2.1583,-0.56056 0.6798,-0.19907 0.9847,3.96613 0.3764,5.14254 -0.2374,0.45901 -0.4583,0.83106 -0.4909,0.8268 -0.033,-0.004 -0.4463,-0.35978 -0.9193,-0.79002 z m -10.9141,-3.81025 c 0,-0.93811 0.4212,-1.63563 1.9805,-3.28045 l 1.0823,-1.14161 1.3812,1.63324 c 2.1173,2.50368 2.2395,3.77936 0.3286,3.42992 -0.5992,-0.10955 -1.1369,-0.24669 -1.1949,-0.30475 -0.058,-0.0581 -0.2145,-0.69825 -0.3476,-1.42267 l -0.242,-1.31711 -0.2057,1.39269 c -0.2164,1.46529 -0.1905,1.44348 -2.0547,1.72956 -0.663,0.10173 -0.7277,0.0378 -0.7277,-0.71882 z"
       style="fill:#ffc744;fill-opacity:1"
       id="path1-6"
       inkscape:export-filename="SolarPlexus.svg"
       inkscape:export-xdpi="96"
       inkscape:export-ydpi="96" /><path
       d="m 11.79989,184.0561 c -2.0214,-1.97254 -3.1203,-3.52684 -2.7531,-3.894 0.064,-0.0641 0.8115,0.0811 1.661,0.32248 0.8496,0.24142 1.8423,0.52154 2.2061,0.6225 0.576,0.15985 0.6975,0.40495 0.9406,1.89702 l 0.2792,1.71346 0.204,-1.77774 0.2041,-1.77773 0.972,-0.16109 c 0.5346,-0.0886 1.4992,-0.33041 2.1436,-0.53737 0.6444,-0.20695 1.2099,-0.37628 1.2568,-0.37628 0.047,0 0.085,0.31335 0.085,0.69634 0,0.528 -0.5917,1.27955 -2.4474,3.10885 l -2.4474,2.41252 z m -1.2085,-4.22617 c -2.7447,-0.98766 -4.74457,-2.88069 -6.09168,-5.76611 -0.61204,-1.31094 -0.70848,-1.85966 -0.70848,-4.03105 0,-2.15278 0.0983,-2.7224 0.68483,-3.96875 1.1609,-2.46683 2.58995,-4.01422 4.76603,-5.16071 1.735,-0.91408 2.2063,-1.04082 4.2388,-1.13987 3.7571,-0.18309 6.3093,0.93593 8.6848,3.80788 1.5825,1.9132 2.2052,3.73709 2.206,6.46145 0,3.45943 -1.1713,5.90233 -3.9302,8.18954 -2.4351,2.01875 -6.7504,2.72304 -9.8501,1.60762 z m 6.5558,-0.95284 c 1.6123,-0.51411 3.653,-2.10343 4.6987,-3.65938 4.1572,-6.18568 -0.2592,-14.46652 -7.7264,-14.48718 -2.7702,-0.008 -4.6336,0.77803 -6.66937,2.81211 -1.37434,1.37321 -1.71367,1.90556 -2.18281,3.42447 -1.20799,3.911 -0.31347,7.39588 2.56618,9.99748 1.3996,1.26445 2.3932,1.76396 4.3842,2.20407 1.7453,0.3858 3.0467,0.30884 4.9295,-0.29157 z m -5.8208,-0.53669 c -2.525,-0.91207 -4.86995,-3.19232 -5.50825,-5.35636 -0.48617,-1.64824 -0.69941,-3.8518 -0.35196,-3.63707 0.16718,0.10333 0.30397,0.45729 0.30397,0.78658 0,2.45047 2.63264,5.73726 5.42394,6.77171 5.1163,1.89605 10.4786,-1.50058 11.2674,-7.13707 0.1896,-1.35446 0.2001,-1.30867 0.1525,0.66146 -0.038,1.57297 -0.202,2.42504 -0.6387,3.31723 -0.7894,1.61299 -2.6531,3.48234 -4.2131,4.22576 -1.6811,0.80118 -4.7503,0.97656 -6.4358,0.36776 z m 0.2727,-1.96791 c -1.8837,-0.6773 -3.1168,-1.6892 -4.15983,-3.41339 -0.88595,-1.46458 -1.32057,-3.56289 -1.06463,-5.14003 0.17568,-1.08258 1.22409,-3.34255 1.55066,-3.34255 0.1399,0 0.1274,0.21923 -0.029,0.51178 -0.48153,0.89969 -0.3261,3.61631 0.2807,4.90731 1.2411,2.64026 4.2849,4.20788 7.0495,3.63067 3.7399,-0.78082 6.105,-4.52147 5.1373,-8.12506 l -0.2839,-1.05699 0.5199,0.6268 c 0.2859,0.34474 0.7119,1.28736 0.9466,2.09471 1.1395,3.91966 -1.1476,8.08921 -5.1079,9.31244 -2.134,0.65912 -2.9933,0.65811 -4.8393,-0.006 z m -0.2493,-4.02828 c -5.09196,-2.58107 -3.64905,-10.45509 2.009,-10.96327 2.1257,-0.19091 3.4449,0.2324 4.7827,1.53466 3.7972,3.69644 1.2213,10.03644 -4.0728,10.02392 -1.0762,-0.003 -1.9093,-0.18497 -2.7189,-0.59531 z m 4.0932,-0.38188 c -0.095,-0.24843 -0.091,-1.85578 0.01,-3.57188 0.1637,-2.79903 0.2331,-3.12018 0.6742,-3.12018 0.4827,0 1.5509,-0.86669 1.5491,-1.25677 -5e-4,-0.10914 -1.736,-0.19844 -3.8565,-0.19844 -3.5107,0 -3.8892,0.0459 -4.2324,0.51359 -0.2073,0.28248 -0.377,0.58014 -0.3772,0.66146 -1e-4,0.0813 1.1012,0.14787 2.4474,0.14787 h 2.4477 l 0.081,1.425 c 0.072,1.25653 -0.01,1.51604 -0.6566,2.19513 -0.5873,0.613 -0.9277,0.75412 -1.6687,0.69167 -0.7454,-0.0628 -0.9483,-0.20144 -1.0183,-0.6956 -0.048,-0.33942 0.1289,-0.85615 0.3933,-1.14829 0.3838,-0.42405 0.6839,-0.49866 1.4885,-0.37001 0.9567,0.15298 0.9929,0.1333 0.7139,-0.38801 -0.3865,-0.72213 -0.8573,-0.87947 -1.9937,-0.66627 -0.6663,0.12499 -1.0855,0.41983 -1.4522,1.02126 -0.6963,1.14181 -0.6503,1.83782 0.1869,2.83283 0.6211,0.73815 0.8326,0.82442 1.786,0.72871 0.5948,-0.0597 1.26,-0.15946 1.4783,-0.22166 0.2687,-0.0766 0.4228,0.1108 0.4773,0.58045 0.046,0.39868 0.3274,0.81291 0.6614,0.97429 0.844,0.40779 1.0568,0.37441 0.8612,-0.13515 z m 0.083,-8.90085 c 0.2251,-0.27126 0.1786,-0.46301 -0.1942,-0.80043 -0.4358,-0.39435 -0.5273,-0.39919 -0.8225,-0.0435 -0.3928,0.47338 -0.1821,1.20067 0.3479,1.20067 0.205,0 0.506,-0.16052 0.6688,-0.35671 z m -11.6686,16.24713 c -0.688,-0.26895 -1.83737,-0.62968 -2.55415,-0.80164 L 0,178.19433 l 0.35285,-1.3688 c 0.19407,-0.75284 0.53266,-2.16281 0.75242,-3.13327 0.39977,-1.76533 1.04509,-2.86574 1.68058,-2.86574 0.18594,0 0.33807,0.22752 0.33807,0.5056 0,0.27807 0.23126,1.24861 0.5139,2.15674 l 0.51389,1.65115 -0.70716,0.55524 c -0.38894,0.30538 -1.00715,0.82128 -1.37379,1.14645 -0.64463,0.57171 -0.61354,0.56873 0.94197,-0.09 l 1.6086,-0.68124 1.65069,1.65069 c 1.21897,1.21897 1.55947,1.70856 1.30182,1.87192 -0.58456,0.37065 -2.39513,0.23209 -3.71645,-0.28443 z m 16.7815,0.2872 c -0.2521,-0.15991 0.09,-0.66228 1.2766,-1.87505 l 1.621,-1.65662 1.3446,0.55878 c 0.7395,0.30733 1.3852,0.51812 1.4349,0.46843 0.05,-0.0497 -0.4516,-0.47957 -1.1141,-0.95531 -0.6624,-0.47573 -1.1671,-1.00179 -1.1215,-1.16901 0.046,-0.16723 0.3165,-1.16725 0.602,-2.22228 0.2855,-1.05502 0.6032,-1.91823 0.7059,-1.91823 0.3677,0 1.2883,1.41204 1.5328,2.35093 0.5133,1.97105 1.1159,4.83796 1.0302,4.90133 -0.049,0.0361 -1.2556,0.44324 -2.6816,0.90465 -2.5932,0.83905 -3.9835,1.02292 -4.6308,0.61238 z M 1.79767,168.37901 C 1.50919,167.90606 1.2032,167.10239 1.11771,166.59307 1.03221,166.08375 0.7431,164.83462 0.47524,163.81723 0.20738,162.79984 0.0091,161.95977 0.03461,161.9504 c 1.58188,-0.58113 5.12087,-1.53324 5.99951,-1.61408 1.98477,-0.18259 2.02747,0.14618 0.25593,1.96792 l -1.59113,1.63617 -1.36715,-0.51947 c -0.75193,-0.28572 -1.40725,-0.47938 -1.45627,-0.43036 -0.0731,0.0731 1.22227,1.16618 2.09481,1.76762 0.11929,0.0822 -0.0224,0.84501 -0.31486,1.69506 -0.29246,0.85006 -0.53175,1.82458 -0.53175,2.1656 0,0.90235 -0.70737,0.7744 -1.32603,-0.23985 z m 22.97292,-0.79375 c -0.2307,-0.90951 -0.4995,-1.89434 -0.5972,-2.18851 -0.1409,-0.42416 0.071,-0.72138 1.0251,-1.43606 0.6615,-0.49566 1.1672,-0.93676 1.1237,-0.98022 -0.043,-0.0434 -0.6995,0.15676 -1.4579,0.44492 l -1.3788,0.52393 -1.5956,-1.63064 c -1.1687,-1.19437 -1.5034,-1.68907 -1.2512,-1.84907 0.6162,-0.39082 2.0136,-0.23977 4.0235,0.43492 1.0837,0.3638 2.128,0.66328 2.3207,0.66551 0.1926,0.002 0.515,0.10842 0.7164,0.23599 0.368,0.23304 0.1795,1.45408 -0.8,5.18391 -0.253,0.96329 -1.1355,2.24896 -1.5437,2.24896 -0.091,0 -0.3543,-0.74414 -0.585,-1.65364 z m -15.689,-7.86359 c -0.3031,-0.4904 0.6175,-1.73878 2.7875,-3.78018 l 2.1819,-2.05262 2.2754,2.07891 c 1.4613,1.33504 2.3837,2.40086 2.5781,2.97866 0.1664,0.49487 0.2584,0.94667 0.2044,1.004 -0.086,0.0907 -0.8502,-0.10558 -3.8144,-0.97905 -0.5598,-0.16498 -0.7064,-0.43786 -0.9541,-1.77672 l -0.2926,-1.58181 -0.2068,1.40657 c -0.2302,1.56573 -0.6662,2.16531 -1.5748,2.16531 -0.3351,0 -1.1155,0.17859 -1.7342,0.39687 -1.3326,0.47019 -1.2512,0.46232 -1.4504,0.14006 z"
       style="fill:#f99f51;fill-opacity:1"
       id="path1-8"
       inkscape:export-filename="Sacral.svg"
       inkscape:export-xdpi="96"
       inkscape:export-ydpi="96" /></g></svg>
