<?xml version="1.0" encoding="UTF-8" standalone="no"?>
<!-- Created with Inkscape (http://www.inkscape.org/) -->

<svg
   width="32.592842mm"
   height="32.773155mm"
   viewBox="0 0 32.592842 32.773155"
   version="1.1"
   id="svg1"
   xml:space="preserve"
   xmlns="http://www.w3.org/2000/svg"
   xmlns:svg="http://www.w3.org/2000/svg"><defs
     id="defs1" /><g
     id="layer1"
     transform="translate(-996.18026,61.523705)"><path
       d="m 1011.3746,-29.766381 -0.9947,-0.975547 0.5478,-0.495758 c 0.5843,-0.528784 0.612,-0.512918 1.343,0.769062 0.2588,0.453901 0.3195,0.42822 0.781,-0.330729 0.5727,-0.941771 0.6915,-0.978422 1.3218,-0.407974 0.4294,0.388597 0.387,0.480746 -0.6702,1.455209 -0.6207,0.572187 -1.1748,1.022553 -1.2313,1.000813 -0.056,-0.02174 -0.5503,-0.478525 -1.0974,-1.015076 z m -3.2135,-1.767049 c -0.5093,-1.231334 -0.429,-1.495053 0.5445,-1.788496 0.5324,-0.160502 0.5558,-0.110639 0.3586,0.764012 -0.2591,1.148563 -0.076,1.225457 0.3067,0.128604 0.2686,-0.770708 0.3038,-0.786761 0.78,-0.355867 0.6815,0.616749 0.6444,0.738408 -0.5006,1.645283 l -0.9991,0.791348 z m 7.3507,0.328411 -1.0908,-0.839504 0.5021,-0.620067 c 0.5684,-0.701953 0.5709,-0.700977 0.9842,0.380939 l 0.3032,0.79375 -0.1202,-1.005419 c -0.1116,-0.933896 -0.079,-0.992952 0.4606,-0.830159 0.9573,0.28884 1.0228,0.508143 0.5265,1.761292 l -0.4748,1.198671 z m -11.5005,-0.880195 c -0.1928,-0.691224 -0.3914,-1.390602 -0.4412,-1.554174 -0.05,-0.163571 0.214,-0.355649 0.5864,-0.426839 0.6126,-0.117099 0.6927,-0.03202 0.8406,0.892716 0.09,0.562183 0.1941,1.022151 0.2317,1.022151 0.037,0 0.4007,-0.1725 0.8071,-0.383334 0.842,-0.436854 1.0526,-0.372758 1.2496,0.380315 0.1087,0.415635 -0.016,0.568408 -0.5634,0.687456 -0.3867,0.08418 -1.0483,0.262281 -1.4702,0.395771 -0.4219,0.13349 -0.7948,0.242709 -0.8285,0.242709 -0.034,0 -0.2192,-0.565547 -0.4121,-1.256771 z m 15.3038,0.894611 c -1.3308,-0.317127 -1.3991,-0.391158 -1.1697,-1.268196 l 0.1456,-0.556915 0.9416,0.555545 0.9416,0.555546 v -0.925422 c 0,-0.94659 0.4451,-1.3638 1.1616,-1.088839 0.3098,0.118863 0.2993,0.37414 -0.066,1.615311 -0.2387,0.810775 -0.4935,1.460216 -0.5663,1.443202 -0.073,-0.01701 -0.6975,-0.165618 -1.3883,-0.330232 z m -7.6592,-1.098544 c -0.5377,-0.49557 -1.1075,-1.143551 -1.2661,-1.439958 -0.2402,-0.44887 -0.2095,-0.538318 0.1839,-0.535309 1.1574,0.0089 1.6268,0.328094 1.88,1.278725 l 0.2575,0.966621 0.027,-0.866445 c 0.021,-0.673734 0.1782,-0.923835 0.706,-1.124479 1.7605,-0.669339 1.8941,-0.01992 0.3135,1.523711 l -1.1245,1.098171 z m -6.3719,-2.524764 c -0.2587,-0.878679 -0.4012,-1.709508 -0.3166,-1.846287 0.085,-0.136778 0.5112,0.01568 0.9483,0.338806 0.7695,0.568911 0.797,0.709112 0.3767,1.921074 -0.1387,0.399572 -0.029,0.34914 0.4489,-0.205926 0.6273,-0.729102 0.6407,-0.73165 1.6435,-0.312631 1.1997,0.501248 1.0091,0.84053 -0.6802,1.210787 -0.6361,0.139411 -1.3351,0.307093 -1.5534,0.372626 -0.2912,0.08743 -0.5221,-0.306173 -0.8672,-1.478449 z m 12.5436,1.199558 c -1.96,-0.477626 -2.1842,-0.786893 -0.9453,-1.304522 1.0037,-0.419371 1.0155,-0.417083 1.6176,0.312631 l 0.6066,0.735093 -0.3014,-0.904643 c -0.2819,-0.846214 -0.2517,-0.944432 0.4677,-1.520697 0.6793,-0.544118 0.7803,-0.563617 0.8648,-0.166984 0.1136,0.533091 -0.508,3.266725 -0.7333,3.224525 -0.086,-0.01609 -0.7954,-0.185023 -1.5767,-0.375403 z m -15.8867,-1.772639 c 0.1202,-0.621496 0.2237,-1.219289 0.2301,-1.32843 0.016,-0.275729 1.599,-0.250842 1.599,0.02514 0,0.122967 -0.2381,0.439076 -0.5292,0.702465 -0.291,0.263389 -0.5291,0.601774 -0.5291,0.751967 0,0.150192 0.3571,-0.06913 0.7937,-0.487384 0.5893,-0.56456 0.7938,-0.651045 0.7938,-0.335724 0,0.233605 0.068,0.602312 0.1514,0.819349 0.1598,0.416539 -0.1131,0.54322 -1.7706,0.821702 l -0.9576,0.160908 z m 19.8208,0.885698 c -0.5093,-0.08998 -0.9142,-0.312435 -0.8996,-0.494336 0.014,-0.181902 0.044,-0.589609 0.066,-0.906017 l 0.04,-0.575287 0.6604,0.620428 c 0.3632,0.341235 0.7212,0.559697 0.7954,0.48547 0.074,-0.07423 -0.1039,-0.351117 -0.3958,-0.615314 -0.7307,-0.661273 -0.6652,-0.92751 0.2283,-0.92751 0.6717,0 0.778,0.114307 0.9231,0.992188 0.3006,1.818375 0.3807,1.738101 -1.4177,1.420378 z m -12.5469,-0.837044 c -3.7853,-1.338868 -6.1294,-4.148524 -6.8197,-8.174283 -0.7684,-4.480881 1.5635,-8.925093 5.7791,-11.014058 1.4106,-0.698991 1.7975,-0.767903 4.3326,-0.77163 2.6148,-0.0038 2.8906,0.04854 4.545,0.862997 7.8937,3.886036 7.8652,14.93668 -0.048,18.671507 -2.3034,1.087168 -5.4346,1.258206 -7.7889,0.425467 z m 6.9117,-1.097626 c 1.9484,-0.716821 3.8492,-2.523309 4.8991,-4.655923 0.7745,-1.573273 0.8676,-2.004186 0.868,-4.01765 4e-4,-2.677572 -0.7105,-4.50236 -2.5182,-6.463476 -2.6245,-2.847314 -7.4765,-3.727009 -10.9061,-1.977361 -1.639,0.836155 -3.5537,2.780909 -4.3637,4.432242 -0.6448,1.314437 -0.7292,1.782797 -0.7207,4.002189 0.011,2.960561 0.5025,4.305174 2.2753,6.228383 2.762,2.99644 6.5645,3.887113 10.4663,2.451596 z m -6.3205,-0.442104 c -3.3,-1.333559 -4.9803,-3.257398 -5.7667,-6.602628 -0.2618,-1.113397 -0.2638,-1.748414 -0.01,-3.039329 0.6011,-3.055315 2.0646,-5.022928 4.7024,-6.321807 1.5601,-0.768225 2.0284,-0.873069 3.8996,-0.873069 1.8688,0 2.3407,0.105345 3.8937,0.869131 1.8506,0.910207 2.8456,1.924361 3.9496,4.025661 0.5301,1.009163 0.6255,1.573712 0.6255,3.704166 0,2.94123 -0.4894,4.227504 -2.3183,6.093272 -2.2612,2.306732 -6.2289,3.254722 -8.9759,2.144603 z m 2.4307,-2.417041 c 0.291,-0.291042 0.5335,-0.856589 0.5388,-1.256771 0.019,-1.40862 3.0789,-3.033517 4.614,-2.44988 0.9572,0.363923 0.7692,1.049562 -0.3903,1.423575 -1.0836,0.349505 -1.3643,1.241937 -0.6417,2.040311 0.5761,0.636656 0.8284,0.640259 1.027,0.01466 0.086,-0.270976 0.5405,-0.602372 1.01,-0.736434 1.232,-0.351773 1.2413,-1.132527 0.03,-2.473722 -1.8661,-2.0655 -3.5621,-2.345941 -5.6863,-0.940221 -0.9418,0.623238 -1.0898,0.652613 -1.4539,0.288524 -0.3407,-0.340679 -0.3536,-0.548467 -0.081,-1.30225 0.2822,-0.780311 0.2568,-1.012504 -0.1951,-1.78634 -0.8659,-1.482534 -2.1012,-2.148416 -3.7413,-2.016753 -1.7404,0.139699 -2.0933,0.442411 -1.4468,1.240824 0.4474,0.55245 0.5681,0.574105 1.6203,0.290779 1.4325,-0.38574 2.68,-0.144873 2.68,0.517448 0,0.576483 -1.3646,1.788568 -2.2693,2.015632 -0.7586,0.190387 -0.7827,0.30226 -0.2032,0.942594 0.4821,0.532769 1.443,0.628678 2.2062,0.22022 1.1272,-0.603249 1.9264,0.663019 1.3289,2.105482 -0.2112,0.509845 -0.5744,0.829048 -1.0662,0.937066 -0.863,0.189561 -2.6845,-0.245249 -3.6766,-0.877686 -0.6518,-0.415442 -0.6671,-0.413778 -0.312,0.03392 1.5021,1.894114 4.9774,2.900491 6.1089,1.76902 z m 6.2032,-7.474479 c 1.0065,-0.885675 1.1404,-2.05325 0.342,-2.981459 l -0.6475,-0.752689 -0.1759,0.937781 c -0.2492,1.328383 -1.0249,1.936471 -2.4703,1.936471 -1.0983,0 -1.2807,-0.102779 -2.348,-1.322917 -0.6365,-0.727604 -1.1597,-1.201809 -1.1627,-1.053789 -0.01,0.48821 2.3297,2.949557 3.2212,3.388916 1.2397,0.610935 2.4379,0.554628 3.2412,-0.152314 z m -2.3901,-3.185783 c 0.4133,-0.655304 -0.435,-1.479344 -1.0217,-0.992425 -0.4928,0.408957 -0.5235,0.850214 -0.089,1.284328 0.3892,0.389227 0.7394,0.297223 1.111,-0.291903 z m -16.29312,13.47679 c -0.5337,-0.166643 -1.0532,-0.385857 -1.1543,-0.487143 -0.277,-0.277668 0.4122,-2.85916 0.7622,-2.854501 0.1674,0.0022 0.4685,0.10803 0.66922,0.235115 0.3062,0.19398 0.2956,0.369707 -0.066,1.094932 -0.2371,0.475128 -0.431,0.905107 -0.431,0.95551 0,0.0504 0.489,0.09164 1.0866,0.09164 0.8822,0 1.0565,0.07875 0.9261,0.418514 -0.088,0.230183 -0.1606,0.52784 -0.1606,0.661459 0,0.300991 -0.3851,0.273729 -1.632,-0.115528 z m 24.01772,-0.06004 c -0.2972,-0.774433 -0.165,-0.904402 0.9197,-0.904402 0.5943,0 1.0369,-0.0893 0.9837,-0.198438 -0.053,-0.10914 -0.2646,-0.534386 -0.47,-0.944989 -0.3229,-0.645665 -0.3217,-0.779199 0.01,-0.988136 0.21,-0.132871 0.5102,-0.243407 0.6671,-0.245636 0.3468,-0.0049 1.0012,2.664596 0.7131,2.908541 -0.1885,0.15954 -2.2022,0.791574 -2.5221,0.791574 -0.077,0 -0.2117,-0.188331 -0.3,-0.418514 z m -21.8828,-1.332946 -1.217,-0.373457 0.3322,-1.252641 c 0.6615,-2.494504 0.9485,-2.742676 1.4421,-1.247023 0.2801,0.848789 0.2526,0.977446 -0.3102,1.446405 -0.6552,0.546013 -0.2774,0.722869 0.5725,0.268009 0.4017,-0.215005 0.596,-0.120962 1.0409,0.503865 0.3009,0.422513 0.5471,0.839124 0.5471,0.9258 0,0.254498 -1.098,0.130924 -2.4076,-0.270958 z m 19.0763,0.19965 c 0,-0.125896 0.2456,-0.5411 0.5458,-0.922675 0.5297,-0.673403 0.5743,-0.682382 1.5213,-0.305797 l 0.9756,0.387976 -0.8449,-0.678304 c -0.8449,-0.678227 -0.8449,-0.678408 -0.414,-1.581968 0.6743,-1.414053 0.7944,-1.274532 1.5295,1.7764 0.1544,0.640636 0.068,0.729621 -1.0908,1.12448 -1.3926,0.474505 -2.2225,0.549145 -2.2225,0.199888 z m -21.92492,-2.978798 c -1.2514,-0.542545 -1.2521,-0.514287 0.052,-2.004702 0.4866,-0.556196 0.5365,-0.562101 1.11792,-0.132292 l 0.6086,0.449889 -0.97312,0.456006 -0.973,0.456006 1.021,-0.160143 c 0.97942,-0.1536 1.01332,-0.134394 0.83022,0.470035 -0.292,0.963743 -0.4395,1.004502 -1.68342,0.465201 z m 25.52512,-0.121243 c -0.3051,-0.79513 -0.1633,-0.928776 0.8316,-0.783701 0.9616,0.140217 0.8764,0.05421 -0.4223,-0.426401 l -0.6208,-0.229722 0.6208,-0.503097 c 0.6905,-0.559668 0.9399,-0.449893 1.8357,0.808044 l 0.5287,0.742565 -0.9703,0.405413 c -1.2281,0.513122 -1.6025,0.510402 -1.8034,-0.0131 z m -23.7085,-2.311464 c -0.2183,-0.182544 -0.7478,-0.715835 -1.17682,-1.185091 l -0.7798,-0.853192 1.16562,-1.187744 c 0.6412,-0.65326 1.2929,-1.187744 1.4484,-1.187744 0.1701,0 0.2424,0.42112 0.1817,1.058333 -0.097,1.019743 -0.1356,1.058333 -1.0521,1.058333 -1.04852,0 -0.89042,0.425204 0.213,0.572909 0.554,0.07416 0.6748,0.249754 0.7435,1.080737 0.086,1.042464 -0.087,1.192478 -0.7435,0.643459 z m 22.5936,-0.06979 c 0.088,-0.230183 0.1606,-0.706433 0.1606,-1.058334 0,-0.501959 0.1391,-0.639818 0.6458,-0.639818 0.3552,0 0.7194,-0.119063 0.8094,-0.264584 0.095,-0.154364 -0.1737,-0.264583 -0.6459,-0.264583 -0.6796,0 -0.8093,-0.102555 -0.8093,-0.639819 0,-0.3519 -0.072,-0.82815 -0.1606,-1.058333 -0.3116,-0.812003 0.5798,-0.418277 1.7481,0.77211 l 1.1685,1.190625 -1.1685,1.190625 c -1.1683,1.190387 -2.0597,1.584114 -1.7481,0.772111 z m 2.9871,-0.182811 c -0.5363,-0.549381 -0.285,-1.09801 0.6369,-1.390633 0.7064,-0.224202 0.6313,-0.447973 -0.3353,-0.998225 l -0.8372,-0.476642 0.5511,-0.551158 0.5512,-0.551157 0.8831,1.005773 c 0.4857,0.553175 0.883,1.087378 0.883,1.187119 0,0.09974 -0.4167,0.650695 -0.926,1.224343 -0.9008,1.014537 -0.9392,1.02956 -1.4068,0.55058 z m -29.30942,-0.740098 -0.9506,-1.041176 1.0389,-1.092145 c 0.9742,-1.024092 1.0664,-1.064229 1.4798,-0.644135 0.4119,0.418707 0.3922,0.490182 -0.3016,1.09282 l -0.7423,0.644811 0.7337,0.631154 c 0.632,0.543624 0.6846,0.690396 0.3793,1.058333 -0.4771,0.57484 -0.5432,0.548605 -1.6372,-0.649662 z m 1.6425,-3.86457 c -0.4397,-0.533487 -0.7515,-1.047637 -0.6929,-1.142555 0.1409,-0.22787 2.22442,-0.912007 2.35062,-0.771835 0.054,0.05991 0.1828,0.384156 0.2863,0.720546 0.1788,0.581019 0.1374,0.604069 -0.82702,0.460752 l -1.0152,-0.150866 0.973,0.46529 0.97312,0.46529 -0.6242,0.461677 c -0.61392,0.454131 -0.63722,0.445821 -1.42372,-0.508299 z m 26.20402,0.443148 -0.6208,-0.522564 0.6208,-0.229721 c 1.2987,-0.480609 1.3839,-0.566618 0.4223,-0.426401 -1.0304,0.150255 -1.2497,-0.121066 -0.7438,-0.920512 0.2061,-0.325714 0.3957,-0.328477 1.3321,-0.01942 0.6006,0.198185 1.1424,0.442065 1.2041,0.541955 0.062,0.09989 -0.2716,0.613081 -0.7408,1.140423 l -0.8532,0.958803 z m -23.4649,-1.388714 c -0.068,-0.181901 -0.2814,-0.94079 -0.4735,-1.686419 l -0.3492,-1.35569 1.3649,-0.430247 c 1.4776,-0.465782 2.2452,-0.545104 2.2431,-0.23181 -7e-4,0.10914 -0.2761,0.541931 -0.6121,0.961758 -0.5264,0.657916 -0.6883,0.721853 -1.1719,0.463021 -0.8572,-0.458775 -1.0685,-0.346757 -0.3655,0.193823 0.5898,0.453601 0.6064,0.540004 0.2775,1.449325 -0.358,0.990047 -0.6928,1.223278 -0.9133,0.636239 z m 21.2036,-0.529167 c -0.3517,-0.817257 -0.3353,-0.889349 0.33,-1.453894 0.7658,-0.649906 0.6886,-0.730089 -0.3303,-0.342704 -0.5661,0.215202 -0.7502,0.149242 -1.2079,-0.432557 -0.9879,-1.255921 -0.5073,-1.461647 1.6763,-0.717603 1.2034,0.410044 1.2458,0.459042 1.0866,1.256771 -0.2937,1.471609 -0.6918,2.549883 -0.9414,2.549883 -0.1338,0 -0.4098,-0.386953 -0.6133,-0.859896 z m -23.86372,-1.984374 c -0.098,-0.545704 -0.2823,-1.192182 -0.4083,-1.43662 -0.1919,-0.372311 0.011,-0.514394 1.2539,-0.875554 0.81572,-0.237118 1.51502,-0.394311 1.55402,-0.349318 0.039,0.04499 0.1533,0.349695 0.254,0.677117 0.1882,0.612343 -0.1606,0.749588 -1.53562,0.604194 -0.2707,-0.02863 -0.4455,0.04696 -0.3884,0.16797 0.057,0.121013 0.2719,0.555971 0.47732,0.966575 0.3229,0.645665 0.3217,0.779199 -0.01,0.988136 -0.70732,0.44748 -1.01842,0.254703 -1.19852,-0.7425 z m 26.36392,0.7425 c -0.3302,-0.208937 -0.3314,-0.342471 -0.01,-0.988136 0.2053,-0.410604 0.4169,-0.835849 0.47,-0.944989 0.053,-0.109141 -0.3895,-0.198438 -0.9837,-0.198438 -1.0827,0 -1.3174,-0.2751 -0.8556,-1.002914 0.1756,-0.276746 0.4631,-0.278869 1.5173,-0.0112 0.7154,0.181639 1.341,0.355822 1.3904,0.387073 0.049,0.03125 -0.059,0.720901 -0.2406,1.532556 -0.3284,1.467553 -0.5598,1.687605 -1.2893,1.22605 z m -23.0453,-2.854964 c -0.01,-0.111452 -0.1099,-0.711137 -0.2301,-1.332633 l -0.2185,-1.129993 0.9576,0.160909 c 1.6575,0.278482 1.9304,0.405163 1.7706,0.821702 -0.083,0.217037 -0.1514,0.585743 -0.1514,0.819349 0,0.315321 -0.2045,0.228836 -0.7938,-0.335725 -0.4366,-0.418253 -0.7937,-0.637575 -0.7937,-0.487383 0,0.150193 0.2381,0.488578 0.5291,0.751967 0.2911,0.263389 0.5292,0.554173 0.5292,0.646186 0,0.242237 -1.5853,0.327122 -1.599,0.08562 z m 2.8311,-0.190001 c -0.1031,-0.268636 0.3962,-2.421263 0.7524,-3.24404 0.049,-0.11348 2.7195,0.658794 3.1917,0.923051 0.43,0.240655 0.365,0.323206 -0.5588,0.709333 l -1.0455,0.436983 -0.6255,-0.7419 c -0.4554,-0.540176 -0.5731,-0.598018 -0.433,-0.212733 0.4332,1.191167 0.4034,1.351003 -0.3574,1.913428 -0.6154,0.454988 -0.8143,0.501474 -0.9239,0.215878 z m 14.2707,-0.233133 c -0.7194,-0.576266 -0.7496,-0.674483 -0.4677,-1.520697 l 0.3014,-0.904643 -0.6066,0.735093 c -0.5985,0.725455 -0.6194,0.729686 -1.5934,0.322722 -1.4451,-0.603767 -1.1551,-0.838376 1.9646,-1.589373 0.6408,-0.154264 0.7014,-0.07973 1.0217,1.255405 0.1873,0.780674 0.2975,1.621488 0.2448,1.868477 -0.085,0.396633 -0.1855,0.377134 -0.8648,-0.166984 z m 2.2243,0.385182 c 0,-0.127703 0.1786,-0.380406 0.3969,-0.561564 0.2183,-0.181157 0.3968,-0.454615 0.3968,-0.607684 0,-0.153069 -0.2829,-0.01244 -0.6288,0.312496 l -0.6289,0.590804 -0.1795,-0.715245 c -0.2253,-0.897403 -0.036,-1.065635 1.4023,-1.245744 l 1.1557,-0.144729 -0.1606,0.971197 c -0.088,0.534158 -0.1619,1.120025 -0.1635,1.301926 0,0.190441 -0.3396,0.330729 -0.7967,0.330729 -0.4365,0 -0.7937,-0.104484 -0.7937,-0.232186 z m -11.0033,-3.07707 c 0.2537,-0.387079 0.8389,-1.043791 1.3005,-1.45936 l 0.8393,-0.755581 1.1244,1.097396 c 1.5807,1.542635 1.447,2.192268 -0.3135,1.522934 -0.5278,-0.200682 -0.6847,-0.45062 -0.7057,-1.12448 l -0.027,-0.866444 -0.2069,0.873322 c -0.2523,1.065637 -0.1758,1.000179 -1.4363,1.228423 l -1.0358,0.187569 z m -6.9302,0.06811 c 0.053,-0.181901 0.2565,-0.902946 0.4515,-1.602322 0.2783,-0.998758 0.4461,-1.234435 0.7822,-1.098409 0.2353,0.09525 0.8744,0.23666 1.4201,0.314243 0.8194,0.11649 0.9922,0.247479 0.9922,0.752064 0,0.826532 -0.296,0.951738 -1.1737,0.496404 -0.9351,-0.485111 -0.943,-0.484068 -0.943,0.124193 0,0.27914 -0.072,0.695858 -0.1606,0.926041 -0.191,0.497678 -1.5138,0.582524 -1.3687,0.08779 z m 16.6106,-0.595313 c 0,-0.870291 -0.3193,-1.215043 -0.642,-0.69305 -0.079,0.128145 -0.433,0.288251 -0.7863,0.35579 -0.5112,0.09772 -0.6666,-0.0038 -0.7609,-0.497272 -0.1028,-0.537785 0.026,-0.657311 0.9692,-0.900705 0.5982,-0.154349 1.2663,-0.331526 1.4846,-0.393728 0.2865,-0.08164 0.5154,0.288681 0.823,1.331432 0.469,1.589682 0.4324,1.723575 -0.4703,1.723575 -0.5291,0 -0.6173,-0.132292 -0.6173,-0.926042 z m -11.8585,0.117248 c -0.6449,-0.258606 -0.6389,-0.470381 0.06,-2.133016 l 0.3057,-0.727023 1.05,0.890487 1.0499,0.890487 -0.5653,0.575834 -0.5653,0.575833 -0.3209,-0.972548 c -0.4043,-1.225067 -0.5751,-1.10689 -0.2815,0.194814 0.2377,1.053723 0.2079,1.082331 -0.7327,0.705132 z m 7.7678,-0.699329 0.1137,-1.005419 -0.2987,0.859896 c -0.3523,1.014022 -0.5014,1.056372 -0.9862,0.280151 -0.3303,-0.528991 -0.2892,-0.644808 0.4697,-1.322917 0.4575,-0.408744 0.936,-0.743171 1.0635,-0.743171 0.3373,0 1.1485,2.159816 0.898,2.390836 -0.1166,0.107537 -0.4734,0.274389 -0.7929,0.370782 -0.5388,0.162581 -0.5726,0.102516 -0.4671,-0.830158 z m -5.3115,-1.244229 c -0.4845,-0.354223 -0.4551,-0.420491 0.6455,-1.457004 l 1.153,-1.085903 1.1306,1.042137 c 1.0589,0.976131 1.1015,1.068414 0.6721,1.457005 -0.6192,0.560377 -0.6825,0.539807 -1.2894,-0.418689 l -0.5278,-0.833556 -0.431,0.833556 c -0.4851,0.938087 -0.6333,0.988731 -1.353,0.462454 z"
       style="fill:#c14798;fill-opacity:1"
       id="path1-4" /></g></svg>
