<?xml version="1.0" encoding="UTF-8" standalone="no"?>
<!-- Created with Inkscape (http://www.inkscape.org/) -->

<svg
   width="31.472239mm"
   height="31.359802mm"
   viewBox="0 0 31.472239 31.359802"
   version="1.1"
   id="svg1"
   xml:space="preserve"
   xmlns="http://www.w3.org/2000/svg"
   xmlns:svg="http://www.w3.org/2000/svg"><defs
     id="defs1" /><g
     id="layer1"
     transform="translate(-974.20966,-19.2503)"><path
       d="m 989.56243,50.32663 c -0.1511,-0.282303 -0.4288,-0.671391 -0.6171,-0.86464 -0.7293,-0.748498 -1.5132,-2.298985 -1.5132,-2.993136 0,-0.625049 0.084,-0.704816 0.5953,-0.567696 0.3274,0.08775 0.7883,0.161164 1.0242,0.163151 0.3265,0.0028 0.4791,0.398127 0.6396,1.657258 l 0.2107,1.653646 0.2395,-1.624416 c 0.2249,-1.525227 0.2885,-1.634207 1.0413,-1.784758 0.4409,-0.08819 0.9085,-0.09431 1.0391,-0.01361 0.5802,0.35858 0.036,1.715857 -1.4879,3.712615 -0.8255,1.081363 -0.9187,1.134019 -1.1715,0.66159 z m -7.79591,-3.682398 c -0.16705,-1.695287 0.0512,-2.991379 0.55631,-3.303549 0.11819,-0.07304 0.55281,0.136639 0.96582,0.465964 l 0.75098,0.598774 -0.70275,1.386725 c -0.38649,0.762699 -0.65821,1.431229 -0.60381,1.485621 0.0544,0.05439 0.54196,-0.494572 1.08346,-1.219921 l 0.9846,-1.318817 0.7864,0.406658 c 1.3889,0.71824 0.8944,1.493854 -1.6776,2.63131 -0.83589,0.369696 -1.62014,0.672175 -1.74271,0.672175 -0.12256,0 -0.30288,-0.812223 -0.4007,-1.80494 z m 14.00011,1.153726 c -2.2559,-1.036536 -2.8583,-2.079808 -1.5314,-2.652283 l 0.8498,-0.36667 0.9587,1.305917 c 0.5272,0.718254 1.0014,1.305916 1.0538,1.305916 0.052,0 -0.1959,-0.658238 -0.5517,-1.462752 -0.3558,-0.804514 -0.6469,-1.496498 -0.6469,-1.537743 0,-0.04125 0.3536,-0.336449 0.7859,-0.65601 l 0.7858,-0.58102 0.4189,0.809963 c 0.2961,0.572665 0.3717,1.174028 0.258,2.052617 -0.3601,2.781939 -0.301,2.737741 -2.3809,1.782065 z m -8.7313,-2.879598 c -5.99358,-1.986437 -8.92931,-7.942231 -6.75515,-13.704432 0.90227,-2.39128 2.63846,-4.293161 4.97195,-5.446429 1.9318,-0.954767 2.137,-0.998535 4.6799,-0.998535 2.3356,0 2.845,0.08688 4.1816,0.713287 6.72047,3.149459 8.23557,11.883656 2.9316,16.899963 -2.0378,1.927348 -3.9117,2.71269 -6.7026,2.809164 -1.3682,0.0473 -2.6634,-0.05963 -3.3073,-0.273018 z m 6.6464,-1.35963 c 4.3423,-1.939442 6.57617,-6.734104 5.2376,-11.241708 -0.7963,-2.681476 -2.6759,-4.807265 -5.3214,-6.018401 -2.1542,-0.986218 -5.1722,-0.968886 -7.4151,0.04259 -1.9332,0.871743 -4.0422,2.949473 -4.91673,4.843701 -0.83026,1.79832 -0.83232,5.738423 -0.004,7.532156 0.72197,1.563308 2.77913,3.786564 4.17923,4.516633 2.5276,1.318062 5.7338,1.444526 8.2403,0.325033 z m -6.4347,-0.364741 c -2.0432,-0.705964 -4.3127,-2.419919 -4.3127,-3.256928 0,-0.105756 0.92,-0.168561 2.0444,-0.139566 l 2.0444,0.05272 0.9821,1.587499 c 0.9588,1.549866 1.2166,2.257757 0.8161,2.240321 -0.1092,-0.0048 -0.8176,-0.222571 -1.5743,-0.484046 z m 4.1425,-0.998342 c 1.3844,-2.477668 1.4203,-2.501888 3.6324,-2.450598 1.0644,0.02468 1.9353,0.127891 1.9353,0.229359 0,0.101467 -0.4384,0.622912 -0.9743,1.158766 -1.0432,1.043213 -3.0888,2.134496 -4.5582,2.431673 l -0.9022,0.182483 z m -2.4479,-0.605549 c -0.5226,-0.877235 -0.8425,-1.661494 -0.7109,-1.742799 0.1315,-0.0813 1.0166,-0.126438 1.9668,-0.100297 l 1.7276,0.04753 -0.8309,1.48305 c -0.457,0.815677 -0.9146,1.578548 -1.0167,1.695269 -0.1022,0.116722 -0.6133,-0.505517 -1.1359,-1.382753 z m -6.00132,-2.732072 c 0.003,-0.181901 0.40355,-0.969284 0.88952,-1.74974 l 0.8835,-1.41901 0.8303,1.451217 c 0.4566,0.79817 0.8303,1.585553 0.8303,1.74974 0,0.191023 -0.6193,0.298522 -1.7198,0.298522 -1.20264,0 -1.718,-0.09945 -1.71382,-0.330729 z m 3.36932,-1.775402 -1.255,-2.103144 0.5791,-0.981404 c 0.3184,-0.539772 0.6223,-0.85147 0.6752,-0.692662 0.058,0.174041 0.4579,0.230055 1.0067,0.141006 0.8442,-0.136995 0.9104,-0.09713 0.9104,0.548342 0,0.566093 -0.1236,0.696077 -0.6615,0.696077 -0.9351,0 -0.8694,0.891061 0.14,1.900484 0.6534,0.653399 0.9711,0.781641 1.7198,0.694234 0.6318,-0.07376 0.9183,2.7e-5 0.9183,0.236535 0,0.367584 0.9266,1.401686 1.2568,1.402673 0.1091,3.27e-4 0.1607,-1.122785 0.1146,-2.495802 -0.075,-2.234428 -0.027,-2.553787 0.463,-3.043302 0.3008,-0.300798 0.5467,-0.636202 0.5465,-0.745343 -8e-4,-0.368284 -5.5804,-0.374503 -6.0331,-0.0067 -0.2653,0.215567 -0.1868,-0.07221 0.2174,-0.796749 l 0.6328,-1.134202 2.4028,0.04061 2.4028,0.04061 1.1149,1.944947 c 0.6132,1.069721 1.1149,2.083124 1.1149,2.252007 0,0.365277 -1.5005,3.084558 -2.0665,3.744911 -0.321,0.374532 -0.8314,0.462736 -2.6709,0.461527 l -2.2741,-0.0015 z m 5.3559,-5.434493 c 0,-0.218282 -0.1785,-0.396875 -0.3968,-0.396875 -0.2183,0 -0.3969,0.178593 -0.3969,0.396875 0,0.218281 0.1786,0.396875 0.3969,0.396875 0.2183,0 0.3968,-0.178594 0.3968,-0.396875 z m 1.5875,7.422508 c 0,-0.06496 0.4324,-0.855814 0.9608,-1.757445 l 0.9608,-1.63933 0.888,1.559008 c 0.4884,0.857455 0.8895,1.648305 0.8913,1.757446 0,0.10914 -0.8301,0.198437 -1.8488,0.198437 -1.0186,0 -1.8521,-0.05315 -1.8521,-0.118116 z M 981.589,37.402818 c -0.44013,-1.554754 -0.39973,-3.827884 0.0927,-5.213931 l 0.37186,-1.046743 1.11353,1.906639 1.11354,1.906639 -1.08167,1.852083 c -0.59493,1.018646 -1.12049,1.852084 -1.16791,1.852084 -0.0474,0 -0.24634,-0.565547 -0.44201,-1.256771 z m 15.00573,-0.661459 -1.0196,-1.918229 1.0658,-1.809956 c 1.0338,-1.755741 1.0756,-1.791451 1.3964,-1.192169 0.4893,0.914327 0.6331,4.253942 0.2432,5.64677 -0.1836,0.655497 -0.4086,1.191814 -0.5,1.191814 -0.091,0 -0.6251,-0.863204 -1.1858,-1.91823 z m -8.3026,-0.638249 c -0.4563,-0.184125 -0.4164,-0.618521 0.057,-0.618521 0.5239,0 1.0031,-0.957139 0.7999,-1.597494 -0.2251,-0.709067 0.8055,-0.715505 1.1845,-0.0074 0.8367,1.563504 -0.3833,2.892417 -2.0412,2.223415 z m -4.5093,-3.422253 c -0.46669,-0.812467 -0.8485,-1.585563 -0.8485,-1.717991 0,-0.132427 0.8448,-0.240777 1.8773,-0.240777 h 1.8774 l -0.8481,1.521354 c -0.4665,0.836745 -0.9295,1.609841 -1.0289,1.717991 -0.099,0.10815 -0.5626,-0.46811 -1.0292,-1.280577 z m 10.4297,-0.01148 c -0.5277,-0.843624 -0.9595,-1.626884 -0.9595,-1.740577 0,-0.113694 0.8335,-0.206716 1.8521,-0.206716 1.0187,0 1.8485,0.0893 1.8441,0.198437 0,0.109141 -0.4061,0.892401 -0.8926,1.740577 l -0.8847,1.54214 z m -11.2782,-2.770849 c 0,-0.119426 0.43619,-0.653326 0.9693,-1.186444 0.9996,-0.999591 3.0006,-2.038734 4.5369,-2.356089 l 0.876,-0.180956 -0.854,1.545918 c -1.3782,2.494591 -1.3923,2.504176 -3.5962,2.445846 -1.0626,-0.02813 -1.932,-0.14885 -1.932,-0.268275 z m 5.6876,-1.010912 c 1.23,-2.396118 1.2616,-2.406377 2.226,-0.720844 0.4691,0.819823 0.7803,1.607864 0.6918,1.751201 -0.089,0.143337 -0.9209,0.241999 -1.8496,0.219248 l -1.6884,-0.04136 z m 3.0745,-0.58755 c -0.6027,-1.041068 -1.0436,-1.945052 -0.9798,-2.008853 0.064,-0.0638 0.7719,0.0747 1.5737,0.307773 1.7957,0.522027 4.6241,2.58357 4.6585,3.395494 0,0.10914 -0.9287,0.198437 -2.074,0.198437 h -2.0825 z M 977.17964,42.9661 c -0.47294,-0.05869 -0.85989,-0.161314 -0.85989,-0.22805 0,-0.551695 1.65054,-3.563454 2.14125,-3.90716 0.84689,-0.593181 0.93667,-0.563603 1.28707,0.424004 0.28233,0.795738 0.25147,0.899377 -0.4136,1.389063 -0.39528,0.291041 -1.02694,0.797714 -1.40369,1.125939 -0.67122,0.584774 -0.65573,0.583495 0.77022,-0.06356 1.82067,-0.826172 1.9519,-0.824085 2.51811,0.04006 0.44173,0.674167 0.44083,0.721261 -0.0201,1.058334 -0.45942,0.335932 -2.08635,0.401252 -4.01933,0.161372 z m 21.51209,-0.148283 c -0.4916,-0.372607 -0.4943,-0.420703 -0.06,-1.083451 0.542,-0.827258 0.7519,-0.8415 2.26757,-0.153855 0.6401,0.290431 1.2054,0.486452 1.2563,0.435601 0.051,-0.05085 -0.4431,-0.477084 -1.0977,-0.947184 -1.29977,-0.93343 -1.33387,-1.0107 -0.8832,-2.000022 0.3615,-0.793337 0.4409,-0.808857 1.2476,-0.243851 0.559,0.391595 2.2966,3.744369 2.0621,3.978936 -0.055,0.05473 -1.0397,0.167956 -2.1888,0.251622 -1.61297,0.117436 -2.20667,0.06322 -2.60377,-0.237796 z m -21.87285,-5.945559 c -1.80689,-1.206232 -2.60925,-1.795673 -2.60925,-1.916836 0,-0.121163 0.80236,-0.710604 2.60925,-1.916836 0.38032,-0.253895 1.01892,-0.462255 1.4191,-0.463021 0.65106,-0.0012 0.7276,0.09305 0.7276,0.896341 0,1.036595 -0.30241,1.218933 -2.02163,1.218933 -0.72236,0 -1.12079,0.103242 -1.02108,0.264583 0.0899,0.145521 0.62301,0.264583 1.1846,0.264583 1.54729,0 1.85811,0.203901 1.85811,1.218933 0,0.803295 -0.0765,0.897587 -0.7276,0.896341 -0.40018,-7.66e-4 -1.03878,-0.209125 -1.4191,-0.463021 z m 24.05712,-0.395482 c 0.1523,-1.06454 0.4183,-1.247597 1.8203,-1.252719 0.6099,-0.0022 1.1824,-0.123114 1.2724,-0.268635 0.1,-0.161341 -0.2987,-0.264583 -1.0211,-0.264583 -1.7192,0 -2.0216,-0.182338 -2.0216,-1.218933 0,-0.803295 0.077,-0.897587 0.7276,-0.896341 0.4001,7.66e-4 1.0387,0.209126 1.4191,0.463021 1.8069,1.206232 2.6092,1.795673 2.6092,1.916836 0,0.121163 -0.8023,0.710604 -2.6092,1.916836 -0.3804,0.253896 -1.0579,0.462255 -1.5056,0.463021 -0.7675,0.0013 -0.807,-0.04781 -0.6911,-0.858503 z M 978.21167,30.78824 c -0.73249,-0.699175 -2.03721,-3.448635 -1.76547,-3.720379 0.0724,-0.0724 1.13825,-0.143014 2.36856,-0.156928 2.6187,-0.02961 3.11425,0.235871 2.36343,1.266182 -0.60207,0.826185 -0.87902,0.844076 -2.24879,0.145271 -1.50549,-0.768044 -1.5597,-0.459354 -0.0962,0.547585 0.90595,0.623308 1.18036,0.959406 1.04691,1.282274 -0.0995,0.240657 -0.24075,0.645917 -0.31398,0.900578 -0.18343,0.63796 -0.46698,0.582572 -1.35449,-0.264583 z m 21.96303,0.0537 c -0.45077,-0.989322 -0.41667,-1.066592 0.8831,-2.000022 0.6546,-0.4701 1.1486,-0.896332 1.0977,-0.947183 -0.051,-0.05085 -0.6162,0.145169 -1.2563,0.4356 -1.48237,0.672559 -1.58997,0.66427 -2.19787,-0.169192 -0.4968,-0.681135 -0.4968,-0.698377 0,-1.074633 0.3804,-0.288095 1.0156,-0.349523 2.57587,-0.249101 1.139,0.07331 2.124,0.186315 2.1888,0.25112 0.2481,0.248087 -1.4597,3.588126 -2.0438,3.997263 -0.8066,0.565005 -0.886,0.549485 -1.2475,-0.243852 z m -18.07611,-4.53896 c -0.35304,-0.428259 -0.45031,-4.437197 -0.11578,-4.771732 0.26463,-0.264623 3.59752,1.296414 4.00252,1.874689 0.5375,0.767354 0.4998,0.895047 -0.4019,1.361353 l -0.7905,0.408789 -0.9622,-1.339255 c -0.52918,-0.73659 -1.0149,-1.286514 -1.07936,-1.222053 -0.0645,0.06446 0.18846,0.720394 0.56205,1.457631 0.37361,0.737236 0.67921,1.381528 0.67921,1.431759 0,0.05023 -0.3463,0.347375 -0.76956,0.660319 -0.70461,0.520936 -0.79957,0.532632 -1.12448,0.1385 z m 14.51204,-0.177094 -0.7435,-0.608423 0.6628,-1.498728 c 0.3645,-0.824301 0.6199,-1.498729 0.5676,-1.498729 -0.052,0 -0.5241,0.584217 -1.0482,1.29826 -0.9184,1.251088 -0.9817,1.287435 -1.7424,1.000327 -0.9407,-0.355081 -1.0078,-0.944161 -0.194,-1.703443 0.6617,-0.617346 3.2952,-1.73307 3.6188,-1.533119 0.4369,0.270029 0.5534,3.324258 0.1625,4.25983 -0.2094,0.501313 -0.4167,0.907196 -0.4605,0.901963 -0.044,-0.0052 -0.4142,-0.283306 -0.8231,-0.617938 z m -8.9938,-2.186541 c -0.4501,-0.45017 -0.095,-1.482788 1.0404,-3.025087 l 1.2249,-1.66396 0.7772,0.90725 c 0.998,1.16503 1.8481,2.987597 1.6429,3.522394 -0.098,0.254925 -0.3804,0.3748 -0.7289,0.309284 -0.3131,-0.05884 -0.7076,-0.115829 -0.8768,-0.126642 -0.1707,-0.01091 -0.4161,-0.755964 -0.5511,-1.673307 l -0.2434,-1.653646 -0.2107,1.653646 c -0.17,1.333734 -0.3023,1.653645 -0.6841,1.653645 -0.2604,0 -0.6382,0.06323 -0.8396,0.14052 -0.2014,0.07729 -0.4492,0.05744 -0.5508,-0.0441 z"
       style="fill:#63bc68;fill-opacity:1"
       id="path1-31" /></g></svg>
