<?xml version="1.0" encoding="UTF-8" standalone="no"?>
<!-- Created with Inkscape (http://www.inkscape.org/) -->

<svg
   width="32.734306mm"
   height="32.741299mm"
   viewBox="0 0 32.734306 32.741299"
   version="1.1"
   id="svg1"
   xml:space="preserve"
   xmlns="http://www.w3.org/2000/svg"
   xmlns:svg="http://www.w3.org/2000/svg"><defs
     id="defs1" /><g
     id="layer1"
     transform="translate(-989.97427,-163.28779)"><path
       style="fill:#ef3e44;fill-opacity:1"
       d="m 1005.198,195.00532 c -0.6336,-0.56307 -1.9491,-1.54887 -2.9233,-2.19068 -2.2511,-1.48308 -3.46536,-2.84291 -3.46536,-3.88095 0,-0.4315 0.0451,-0.78455 0.10023,-0.78455 0.0551,0 0.78104,0.40996 1.61313,0.91101 0.8321,0.50106 2.3343,1.12262 3.3383,1.38125 1.7644,0.45452 1.8307,0.50147 1.9847,1.4041 0.088,0.51362 0.2469,1.29104 0.354,1.7276 0.1766,0.71976 0.2122,0.6579 0.382,-0.66373 0.103,-0.80162 0.2716,-1.5915 0.3746,-1.75529 0.1031,-0.16378 0.9613,-0.49372 1.9072,-0.7332 0.9459,-0.23947 2.4122,-0.86067 3.2584,-1.38043 0.8462,-0.51976 1.6046,-0.87895 1.6854,-0.79821 0.081,0.0807 0.072,0.54693 -0.02,1.03596 -0.1941,1.03456 -1.1766,2.03124 -3.5978,3.64965 -0.9442,0.63113 -2.1944,1.5871 -2.7781,2.12437 l -1.0614,0.97685 z m -1.6262,-5.23725 c -4.0928,-1.34429 -6.76634,-4.43035 -7.488,-8.6434 -0.74101,-4.32599 1.71363,-8.82382 5.9005,-10.812 1.5655,-0.74338 1.9572,-0.81665 4.3657,-0.81665 2.3058,0 2.8369,0.0896 4.1327,0.69722 5.3216,2.49523 7.5854,8.53617 5.2107,13.90459 -0.8264,1.86825 -3.0924,4.10864 -5.0541,4.997 -1.3417,0.60758 -2.0808,0.75769 -4.0248,0.81738 -1.3096,0.0402 -2.6789,-0.0247 -3.0427,-0.14414 z m 6.2711,-1.39991 c 3.0572,-1.13743 5.5553,-4.54996 5.8292,-7.96298 0.486,-6.05413 -4.8252,-10.91213 -10.8731,-9.94537 -3.0538,0.48815 -5.58592,2.38513 -6.98413,5.2322 -0.63617,1.29538 -0.72533,1.78589 -0.72533,3.99047 0,2.19839 0.0899,2.696 0.71681,3.96875 2.24695,4.56156 7.21805,6.50966 12.03655,4.71693 z m -5.5476,-0.22667 c -1.1631,-0.29229 -3.214,-1.29421 -3.0286,-1.47958 0.1594,-0.15936 10.0002,-0.16629 10.1594,-0.007 0.064,0.064 -0.5453,0.44007 -1.354,0.83573 -1.6314,0.79818 -4.089,1.07514 -5.7768,0.651 z m -4.0445,-2.71087 c -0.071,-0.1855 -0.097,-2.89417 -0.058,-6.01927 l 0.072,-5.682 6.0193,-0.0711 6.0192,-0.0711 v 6.09038 6.09038 h -5.9614 c -4.5867,0 -5.9913,-0.0778 -6.0908,-0.33727 z m 8.981,-5.84223 c 1.5005,-2.99889 2.6664,-5.51423 2.591,-5.58964 -0.1776,-0.17766 -11.1614,-0.18003 -11.1614,-0.002 0,0.33464 5.6015,11.28531 5.7148,11.17207 0.07,-0.0701 1.3551,-2.58113 2.8556,-5.58002 z m -5.2631,-0.43508 -2.2519,-4.49792 h 4.4994 c 2.4747,0 4.4994,0.0974 4.4994,0.21632 0,0.31277 -4.209,8.77952 -4.3645,8.77952 -0.072,0 -1.1438,-2.02406 -2.3824,-4.49792 z m 3.6535,-0.75635 c -0.1021,-1.21833 -0.054,-1.87559 0.1477,-1.99999 0.7042,-0.43523 0.1663,-0.6022 -1.8602,-0.57739 -1.4725,0.018 -2.1953,0.1317 -2.271,0.35717 -0.08,0.23835 0.3017,0.33073 1.3663,0.33073 1.7091,0 2.0097,0.45927 0.3797,0.5801 -1.3823,0.10247 -1.7688,0.62998 -1.2967,1.76986 0.188,0.45377 0.4989,0.82504 0.6909,0.82504 0.2862,0 0.2842,-0.12505 -0.011,-0.69438 -0.1982,-0.38191 -0.2974,-0.85816 -0.2206,-1.05833 0.1882,-0.49056 0.8768,-0.4647 0.8768,0.0329 0,0.21828 0.1063,0.39687 0.2362,0.39687 0.13,0 0.3049,-0.17859 0.3886,-0.39687 0.2798,-0.72903 0.6496,-0.40846 0.8395,0.7276 0.1528,0.91419 0.4688,1.48804 0.8354,1.5173 0.028,0.002 -0.018,-0.81256 -0.1014,-1.81063 z m -0.3462,-3.2124 c 0,-0.14552 -0.1191,-0.26458 -0.2646,-0.26458 -0.1455,0 -0.2646,0.11906 -0.2646,0.26458 0,0.14552 0.1191,0.26458 0.2646,0.26458 0.1455,0 0.2646,-0.11906 0.2646,-0.26458 z m -8.25815,9.25609 c -1.71346,-2.51861 -1.77967,-6.72797 -0.14561,-9.25609 l 0.59855,-0.92604 0.0754,2.71198 c 0.0415,1.49159 0.0415,3.93237 0,5.42396 -0.0738,2.65275 -0.0853,2.69743 -0.52835,2.04619 z m 14.07895,-4.75817 c 0,-2.91042 0.058,-5.29167 0.1279,-5.29167 0.07,0 0.4567,0.62508 0.8586,1.38906 0.6492,1.23405 0.7308,1.66957 0.7308,3.90261 0,2.23304 -0.082,2.66855 -0.7308,3.9026 -0.4019,0.76399 -0.7883,1.38906 -0.8586,1.38906 -0.07,0 -0.1279,-2.38125 -0.1279,-5.29166 z m -11.9062,-7.02363 c 0,-0.33067 2.8499,-1.43046 4.117,-1.58877 1.7201,-0.21492 3.9119,0.22903 5.2803,1.0695 l 1.0537,0.64722 -5.2255,0.008 c -2.874,0.005 -5.2255,-0.0567 -5.2255,-0.1362 z m -5.894,13.65467 c -0.48692,-0.42753 -1.5182,-1.70745 -2.29173,-2.84428 -0.77352,-1.13682 -1.77185,-2.4539 -2.2185,-2.92685 l -0.81209,-0.85989 0.80169,-0.8599 c 0.44093,-0.47294 1.49794,-1.87193 2.34892,-3.10885 0.85098,-1.23693 1.73396,-2.4002 1.96219,-2.58506 0.88758,-0.71888 1.91936,-1.13916 2.41245,-0.98265 0.49819,0.15811 0.49428,0.19253 -0.11428,1.00582 -0.99476,1.32942 -1.50688,2.49858 -1.86027,4.2469 l -0.32791,1.62228 -1.63345,0.24488 c -0.8984,0.13468 -1.63345,0.32766 -1.63345,0.42884 0,0.10118 0.72065,0.2655 1.60145,0.36515 0.8808,0.0997 1.64196,0.32339 1.69148,0.4972 0.0495,0.17381 0.22731,0.98697 0.39511,1.80702 0.16779,0.82005 0.71631,2.17393 1.21893,3.00862 0.50263,0.83468 0.91386,1.56271 0.91386,1.61784 0,0.0551 -0.35304,0.10024 -0.78454,0.10024 -0.49075,0 -1.11608,-0.29109 -1.66986,-0.77731 z m 20.3315,-0.6878 c 0.5155,-0.80581 1.1473,-2.29242 1.4041,-3.30357 0.2568,-1.01115 0.5302,-1.90172 0.6075,-1.97905 0.077,-0.0773 0.843,-0.23846 1.7015,-0.35808 1.6588,-0.23114 1.5553,-0.37314 -0.5371,-0.73712 l -1.3042,-0.22686 -0.3427,-1.51868 c -0.3576,-1.58479 -1.1422,-3.33113 -1.9765,-4.3994 -0.5503,-0.70466 -0.4569,-1.08976 0.2323,-0.95777 0.2541,0.0487 0.6016,0.0976 0.7724,0.10873 0.6269,0.0409 2.0089,1.47212 3.3143,3.4324 0.7369,1.10649 1.7603,2.45355 2.2743,2.99345 l 0.9346,0.98166 -1.0768,1.16827 c -0.5923,0.64255 -1.5708,1.95032 -2.1745,2.90617 -1.4491,2.29457 -2.6669,3.35496 -3.8528,3.35496 h -0.9136 z m -16.81876,-15.19443 c 0,-1.086 1.21746,-2.39121 3.95486,-4.23984 1.2446,-0.84047 2.5495,-1.83763 2.8998,-2.2159 l 0.637,-0.68777 1.0943,1.00863 c 0.6018,0.55474 1.982,1.61051 3.0671,2.34614 2.482,1.68262 3.1445,2.39825 3.341,3.6093 0.1795,1.10625 -0.065,1.20469 -1.0552,0.4255 -0.9233,-0.72626 -2.6863,-1.48526 -4.2792,-1.84223 -0.7215,-0.16171 -1.3993,-0.43532 -1.506,-0.60802 -0.1067,-0.1727 -0.2783,-0.96987 -0.3813,-1.77149 -0.1698,-1.32163 -0.2054,-1.3835 -0.382,-0.66374 -0.1071,0.43657 -0.2699,1.23262 -0.3618,1.76901 -0.1613,0.94166 -0.2191,0.98601 -1.6796,1.2874 -1.5337,0.31649 -3.0564,0.97493 -4.33148,1.87294 -0.9311,0.65575 -1.01748,0.63113 -1.01748,-0.28993 z"
       id="path35" /></g></svg>
