<?xml version="1.0" encoding="UTF-8" standalone="no"?>
<!-- Created with Inkscape (http://www.inkscape.org/) -->

<svg
   width="27.959469mm"
   height="32.416183mm"
   viewBox="0 0 27.959469 32.416183"
   version="1.1"
   id="svg1"
   xml:space="preserve"
   xmlns="http://www.w3.org/2000/svg"
   xmlns:svg="http://www.w3.org/2000/svg"><defs
     id="defs1" /><g
     id="layer1"
     transform="translate(-971.07862,-107.7111)"><path
       d="m 982.87853,137.87833 c -2.0214,-1.97254 -3.1203,-3.52684 -2.7531,-3.894 0.064,-0.0641 0.8115,0.0811 1.661,0.32248 0.8496,0.24142 1.8423,0.52154 2.2061,0.6225 0.576,0.15985 0.6975,0.40495 0.9406,1.89702 l 0.2792,1.71346 0.204,-1.77774 0.2041,-1.77773 0.972,-0.16109 c 0.5346,-0.0886 1.4992,-0.33041 2.1436,-0.53737 0.6444,-0.20695 1.2099,-0.37628 1.2568,-0.37628 0.047,0 0.085,0.31335 0.085,0.69634 0,0.528 -0.5917,1.27955 -2.4474,3.10885 l -2.4474,2.41252 z m -1.2085,-4.22617 c -2.7447,-0.98766 -4.74457,-2.88069 -6.09168,-5.76611 -0.61204,-1.31094 -0.70848,-1.85966 -0.70848,-4.03105 0,-2.15278 0.0983,-2.7224 0.68483,-3.96875 1.1609,-2.46683 2.58995,-4.01422 4.76603,-5.16071 1.735,-0.91408 2.2063,-1.04082 4.2388,-1.13987 3.7571,-0.18309 6.3093,0.93593 8.6848,3.80788 1.5825,1.9132 2.2052,3.73709 2.206,6.46145 0,3.45943 -1.1713,5.90233 -3.9302,8.18954 -2.4351,2.01875 -6.7504,2.72304 -9.8501,1.60762 z m 6.5558,-0.95284 c 1.6123,-0.51411 3.653,-2.10343 4.6987,-3.65938 4.1572,-6.18568 -0.2592,-14.46652 -7.7264,-14.48718 -2.7702,-0.008 -4.6336,0.77803 -6.66937,2.81211 -1.37434,1.37321 -1.71367,1.90556 -2.18281,3.42447 -1.20799,3.911 -0.31347,7.39588 2.56618,9.99748 1.3996,1.26445 2.3932,1.76396 4.3842,2.20407 1.7453,0.3858 3.0467,0.30884 4.9295,-0.29157 z m -5.8208,-0.53669 c -2.525,-0.91207 -4.86995,-3.19232 -5.50825,-5.35636 -0.48617,-1.64824 -0.69941,-3.8518 -0.35196,-3.63707 0.16718,0.10333 0.30397,0.45729 0.30397,0.78658 0,2.45047 2.63264,5.73726 5.42394,6.77171 5.1163,1.89605 10.4786,-1.50058 11.2674,-7.13707 0.1896,-1.35446 0.2001,-1.30867 0.1525,0.66146 -0.038,1.57297 -0.202,2.42504 -0.6387,3.31723 -0.7894,1.61299 -2.6531,3.48234 -4.2131,4.22576 -1.6811,0.80118 -4.7503,0.97656 -6.4358,0.36776 z m 0.2727,-1.96791 c -1.8837,-0.6773 -3.1168,-1.6892 -4.15983,-3.41339 -0.88595,-1.46458 -1.32057,-3.56289 -1.06463,-5.14003 0.17568,-1.08258 1.22409,-3.34255 1.55066,-3.34255 0.1399,0 0.1274,0.21923 -0.029,0.51178 -0.48153,0.89969 -0.3261,3.61631 0.2807,4.90731 1.2411,2.64026 4.2849,4.20788 7.0495,3.63067 3.7399,-0.78082 6.105,-4.52147 5.1373,-8.12506 l -0.2839,-1.05699 0.5199,0.6268 c 0.2859,0.34474 0.7119,1.28736 0.9466,2.09471 1.1395,3.91966 -1.1476,8.08921 -5.1079,9.31244 -2.134,0.65912 -2.9933,0.65811 -4.8393,-0.006 z m -0.2493,-4.02828 c -5.09196,-2.58107 -3.64905,-10.45509 2.009,-10.96327 2.1257,-0.19091 3.4449,0.2324 4.7827,1.53466 3.7972,3.69644 1.2213,10.03644 -4.0728,10.02392 -1.0762,-0.003 -1.9093,-0.18497 -2.7189,-0.59531 z m 4.0932,-0.38188 c -0.095,-0.24843 -0.091,-1.85578 0.01,-3.57188 0.1637,-2.79903 0.2331,-3.12018 0.6742,-3.12018 0.4827,0 1.5509,-0.86669 1.5491,-1.25677 -5e-4,-0.10914 -1.736,-0.19844 -3.8565,-0.19844 -3.5107,0 -3.8892,0.0459 -4.2324,0.51359 -0.2073,0.28248 -0.377,0.58014 -0.3772,0.66146 -10e-5,0.0813 1.1012,0.14787 2.4474,0.14787 h 2.4477 l 0.081,1.425 c 0.072,1.25653 -0.01,1.51604 -0.6566,2.19513 -0.5873,0.613 -0.9277,0.75412 -1.6687,0.69167 -0.7454,-0.0628 -0.9483,-0.20144 -1.0183,-0.6956 -0.048,-0.33942 0.1289,-0.85615 0.3933,-1.14829 0.3838,-0.42405 0.6839,-0.49866 1.4885,-0.37001 0.9567,0.15298 0.9929,0.1333 0.7139,-0.38801 -0.3865,-0.72213 -0.8573,-0.87947 -1.9937,-0.66627 -0.6663,0.12499 -1.0855,0.41983 -1.4522,1.02126 -0.6963,1.14181 -0.6503,1.83782 0.1869,2.83283 0.6211,0.73815 0.8326,0.82442 1.786,0.72871 0.5948,-0.0597 1.26,-0.15946 1.4783,-0.22166 0.2687,-0.0766 0.4228,0.1108 0.4773,0.58045 0.046,0.39868 0.3274,0.81291 0.6614,0.97429 0.844,0.40779 1.0568,0.37441 0.8612,-0.13515 z m 0.083,-8.90085 c 0.2251,-0.27126 0.1786,-0.46301 -0.1942,-0.80043 -0.4358,-0.39435 -0.5273,-0.39919 -0.8225,-0.0435 -0.3928,0.47338 -0.1821,1.20067 0.3479,1.20067 0.205,0 0.506,-0.16052 0.6688,-0.35671 z m -11.6686,16.24713 c -0.688,-0.26895 -1.83737,-0.62968 -2.55415,-0.80164 l -1.30324,-0.31264 0.35285,-1.3688 c 0.19407,-0.75284 0.53266,-2.16281 0.75242,-3.13327 0.39977,-1.76533 1.04509,-2.86574 1.68058,-2.86574 0.18594,0 0.33807,0.22752 0.33807,0.5056 0,0.27807 0.23126,1.24861 0.5139,2.15674 l 0.51389,1.65115 -0.70716,0.55524 c -0.38894,0.30538 -1.00715,0.82128 -1.37379,1.14645 -0.64463,0.57171 -0.61354,0.56873 0.94197,-0.09 l 1.6086,-0.68124 1.65069,1.65069 c 1.21897,1.21897 1.55947,1.70856 1.30182,1.87192 -0.58456,0.37065 -2.39513,0.23209 -3.71645,-0.28443 z m 16.7815,0.2872 c -0.2521,-0.15991 0.09,-0.66228 1.2766,-1.87505 l 1.621,-1.65662 1.3446,0.55878 c 0.7395,0.30733 1.3852,0.51812 1.4349,0.46843 0.05,-0.0497 -0.4516,-0.47957 -1.1141,-0.95531 -0.6624,-0.47573 -1.1671,-1.00179 -1.1215,-1.16901 0.046,-0.16723 0.3165,-1.16725 0.602,-2.22228 0.2855,-1.05502 0.6032,-1.91823 0.7059,-1.91823 0.3677,0 1.2883,1.41204 1.5328,2.35093 0.5133,1.97105 1.1159,4.83796 1.0302,4.90133 -0.049,0.0361 -1.2556,0.44324 -2.6816,0.90465 -2.5932,0.83905 -3.9835,1.02292 -4.6308,0.61238 z m -18.84122,-11.2168 c -0.28848,-0.47295 -0.59447,-1.27662 -0.67996,-1.78594 -0.0855,-0.50932 -0.37461,-1.75845 -0.64247,-2.77584 -0.26786,-1.01739 -0.46614,-1.85746 -0.44063,-1.86683 1.58188,-0.58113 5.12087,-1.53324 5.99951,-1.61408 1.98477,-0.18259 2.02747,0.14618 0.25593,1.96792 l -1.59113,1.63617 -1.36715,-0.51947 c -0.75193,-0.28572 -1.40725,-0.47938 -1.45627,-0.43036 -0.0731,0.0731 1.22227,1.16618 2.09481,1.76762 0.11929,0.0822 -0.0224,0.84501 -0.31486,1.69506 -0.29246,0.85006 -0.53175,1.82458 -0.53175,2.1656 0,0.90235 -0.70737,0.7744 -1.32603,-0.23985 z m 22.97292,-0.79375 c -0.2307,-0.90951 -0.4995,-1.89434 -0.5972,-2.18851 -0.1409,-0.42416 0.071,-0.72138 1.0251,-1.43606 0.6615,-0.49566 1.1672,-0.93676 1.1237,-0.98022 -0.043,-0.0434 -0.6995,0.15676 -1.4579,0.44492 l -1.3788,0.52393 -1.5956,-1.63064 c -1.1687,-1.19437 -1.5034,-1.68907 -1.2512,-1.84907 0.6162,-0.39082 2.0136,-0.23977 4.0235,0.43492 1.0837,0.3638 2.128,0.66328 2.3207,0.66551 0.1926,0.002 0.515,0.10842 0.7164,0.23599 0.368,0.23304 0.1795,1.45408 -0.8,5.18391 -0.253,0.96329 -1.1355,2.24896 -1.5437,2.24896 -0.091,0 -0.3543,-0.74414 -0.585,-1.65364 z m -15.689,-7.86359 c -0.3031,-0.4904 0.6175,-1.73878 2.7875,-3.78018 l 2.1819,-2.05262 2.2754,2.07891 c 1.4613,1.33504 2.3837,2.40086 2.5781,2.97866 0.1664,0.49487 0.2584,0.94667 0.2044,1.004 -0.086,0.0907 -0.8502,-0.10558 -3.8144,-0.97905 -0.5598,-0.16498 -0.7064,-0.43786 -0.9541,-1.77672 l -0.2926,-1.58181 -0.2068,1.40657 c -0.2302,1.56573 -0.6662,2.16531 -1.5748,2.16531 -0.3351,0 -1.1155,0.17859 -1.7342,0.39687 -1.3326,0.47019 -1.2512,0.46232 -1.4504,0.14006 z"
       style="fill:#f99f51;fill-opacity:1"
       id="path1-8" /></g></svg>
