<?xml version="1.0" encoding="UTF-8" standalone="no"?>
<!-- Created with Inkscape (http://www.inkscape.org/) -->

<svg
   width="30.392008mm"
   height="31.765455mm"
   viewBox="0 0 30.392008 31.765455"
   version="1.1"
   id="svg1"
   xml:space="preserve"
   xmlns="http://www.w3.org/2000/svg"
   xmlns:svg="http://www.w3.org/2000/svg"><defs
     id="defs1" /><g
     id="layer1"
     transform="translate(-1013.8993,-62.437839)"><path
       d="m 1028.1458,93.343137 c -1.3773,-1.67099 -2.0851,-2.91359 -2.0851,-3.66088 0,-0.6729 0.077,-0.74583 0.6615,-0.62454 0.3638,0.0755 0.9506,0.19699 1.3039,0.2699 0.5603,0.1156 0.6671,0.32715 0.8351,1.65364 0.2083,1.64549 0.2476,1.62607 0.4995,-0.2468 0.1524,-1.13288 0.2389,-1.25324 1.013,-1.40881 0.4655,-0.0936 1.0548,-0.22877 1.3094,-0.30047 0.6384,-0.17974 0.6237,1.09477 -0.025,2.15425 -0.5683,0.92853 -2.439,3.05138 -2.6644,3.0236 -0.085,-0.0105 -0.4669,-0.39745 -0.8481,-0.85989 z m -8.5391,-2.45002 c -0.088,-0.23019 -0.1606,-1.34809 -0.1606,-2.48423 0,-1.57416 0.1104,-2.20197 0.4637,-2.63827 l 0.4636,-0.57255 0.9049,0.9336 0.9049,0.93361 -0.7303,1.39557 -0.7303,1.39557 1.1194,-1.15484 1.1195,-1.15484 0.9543,0.54389 c 1.8216,1.03813 1.1816,1.84721 -2.1444,2.71107 -1.0606,0.27547 -1.9454,0.5029 -1.9662,0.5054 -0.021,0.002 -0.1101,-0.1838 -0.1985,-0.41398 z m 16.5236,-0.13487 c -1.7668,-0.45589 -3.1904,-1.28966 -3.1904,-1.86861 0,-0.1172 0.4996,-0.46795 1.1101,-0.77944 l 1.1102,-0.56635 0.8778,0.95785 c 0.4828,0.52682 0.9342,0.95785 1.0031,0.95785 0.069,0 -0.131,-0.52743 -0.4442,-1.17207 l -0.5694,-1.17206 0.8243,-0.93885 c 0.7441,-0.8475 0.8642,-0.89899 1.234,-0.52922 0.2252,0.22529 0.483,0.70208 0.5727,1.05954 0.193,0.76895 -0.1288,4.61489 -0.3833,4.58207 -0.097,-0.0125 -1.0619,-0.25129 -2.1449,-0.53071 z m -10.3703,-2.50703 c -2.9429,-0.90605 -5.5656,-3.57935 -6.567,-6.69347 -1.1661,-3.6267 -0.2423,-7.78457 2.3197,-10.440233 1.2455,-1.290949 3.8082,-2.71653 5.3418,-2.97144 5.8144,-0.966469 10.8699,2.182883 12.3403,7.687433 0.4948,1.85235 0.4455,3.50279 -0.1635,5.47465 -1.0044,3.25178 -3.6932,6.03019 -6.7347,6.95913 -1.6188,0.4944 -4.9049,0.48632 -6.5366,-0.0161 z m 7.6827,-1.70756 c 3.7767,-2.01698 5.7079,-6.27939 4.677,-10.32289 -1.1747,-4.607913 -4.9192,-7.358669 -9.6367,-7.079261 -3.5576,0.210706 -6.1881,1.964298 -7.7704,5.179901 -0.7924,1.61055 -0.8686,1.97901 -0.8584,4.15326 0.01,2.06438 0.1076,2.5718 0.7271,3.76521 1.3043,2.51275 3.2265,4.23041 5.6117,5.01459 0.6383,0.20982 1.9511,0.3173 3.3073,0.27074 1.9723,-0.0677 2.4573,-0.18846 3.9424,-0.98155 z m -6.9906,0.16587 c -2.2617,-0.70869 -4.0594,-2.26468 -5.2293,-4.52602 -0.7115,-1.37538 -0.8232,-1.87034 -0.8359,-3.70417 -0.013,-1.92195 0.4256,-3.84028 0.8773,-3.83423 0.091,0.001 0.4746,0.56677 0.8514,1.25677 0.3767,0.69 1.8944,3.33814 3.3724,5.88475 1.478,2.54661 2.6878,4.77904 2.6884,4.96094 10e-4,0.40289 -0.3413,0.39534 -1.7243,-0.038 z m 3.3128,0.25959 c 0,-0.0924 0.9147,-1.74279 2.0326,-3.66746 1.118,-1.92467 2.5467,-4.42363 3.1749,-5.55324 1.9992,-3.59497 2.0078,-3.6029 2.4226,-2.24564 0.5155,1.68649 0.5981,2.89984 0.2984,4.38275 -0.7269,3.59654 -3.5165,6.43948 -6.9363,7.06901 -0.5457,0.10046 -0.9922,0.10702 -0.9922,0.0146 z m -1.6228,-1.68057 c -0.3832,-0.68913 -1.9621,-3.44437 -3.5087,-6.12275 -1.5465,-2.67839 -2.769,-4.91276 -2.7164,-4.96527 0.053,-0.0525 3.3099,-0.0637 7.2387,-0.025 l 7.1431,0.0705 -1.1355,1.98437 c -0.6246,1.09141 -1.3561,2.40109 -1.6256,2.91042 -0.4259,0.80495 -2.9064,5.07855 -3.9544,6.81302 -0.1979,0.32742 -0.4463,0.59359 -0.5521,0.5915 -0.1058,-0.002 -0.5059,-0.56765 -0.8891,-1.25677 z m 1.5727,-2.56779 c -0.7005,-0.60697 -0.7036,-0.62379 -0.1984,-1.08094 0.419,-0.37924 0.5131,-0.82064 0.5131,-2.40774 v -1.94337 h 0.7408 c 0.6882,0 1.3759,-0.40418 1.3759,-0.80866 0,-0.28702 -5.6466,-0.48455 -6.15,-0.21515 -0.2555,0.13677 -0.4649,0.39332 -0.4652,0.5701 -4e-4,0.22835 0.4976,0.29573 1.7198,0.2327 l 1.7204,-0.0887 0.022,1.01476 c 0.012,0.55812 0.057,1.31242 0.099,1.67622 0.1574,1.35762 -0.935,2.12241 -1.7055,1.194 -0.4742,-0.57137 -0.127,-1.194 0.6659,-1.194 0.3896,0 0.6148,-0.1142 0.5219,-0.26458 -0.2274,-0.36786 -1.5469,-0.33171 -1.9315,0.0529 -0.4879,0.48787 -0.3771,1.73959 0.2056,2.32223 0.2877,0.28769 0.9128,0.68596 1.3891,0.88506 0.4762,0.19909 1.0335,0.56407 1.2384,0.81106 0.2725,0.32862 0.4499,0.37016 0.6614,0.15487 0.21,-0.21373 0.094,-0.46284 -0.4225,-0.91076 z m 0.447,-7.54871 c 0,-0.2143 -0.2084,-0.42976 -0.463,-0.4788 -0.3249,-0.0626 -0.4631,0.0803 -0.4631,0.4788 0,0.3985 0.1382,0.54136 0.4631,0.4788 0.2546,-0.049 0.463,-0.26451 0.463,-0.4788 z m -8.0698,-1.96189 c 0,-0.630843 2.3531,-2.48747 3.8736,-3.056376 3.0402,-1.137465 6.7737,-0.423546 9.0148,1.723793 0.624,0.5979 1.1345,1.226563 1.1345,1.397033 0,0.22906 -1.8295,0.30994 -7.0114,0.30994 -5.8689,0 -7.0115,-0.061 -7.0115,-0.37439 z m -5.0264,11.37576 c -0.5093,-0.20491 -1.3981,-0.54888 -1.9751,-0.76439 -0.577,-0.21551 -1.0774,-0.49363 -1.112,-0.61805 -0.1349,-0.48505 2.4814,-3.93682 3.1668,-4.17809 0.3871,-0.13623 0.7544,-0.19576 0.8164,-0.13229 0.062,0.0635 0.1943,0.66365 0.294,1.33373 l 0.1814,1.21833 -1.0827,0.43318 c -0.5954,0.23824 -1.0826,0.49777 -1.0826,0.57672 0,0.079 0.5718,0.0677 1.2705,-0.025 l 1.2705,-0.16854 0.4907,1.08816 c 0.2699,0.59849 0.4336,1.14525 0.3639,1.21501 -0.3416,0.34153 -1.7766,0.35323 -2.6018,0.0212 z m 21.652,0.11537 c -0.4048,-0.24816 -0.3941,-0.35758 0.1323,-1.34609 l 0.573,-1.07597 1.2799,0.16276 c 1.4735,0.18737 1.481,-0.18077 0.014,-0.66506 l -0.948,-0.31288 0.1827,-1.22777 c 0.1005,-0.67528 0.2256,-1.27184 0.278,-1.3257 0.052,-0.0538 0.402,-0.0209 0.777,0.0732 0.4772,0.11978 1.0722,0.78316 1.9833,2.21133 l 1.3015,2.04021 -1.619,0.73491 c -1.8689,0.84836 -3.324,1.11738 -3.9543,0.73106 z m -22.5468,-7.76176 c -0.4538,-0.4831 -0.9985,-1.22724 -1.2105,-1.65365 -0.212,-0.42641 -0.5585,-0.98438 -0.7701,-1.23993 -0.2115,-0.25556 -0.3357,-0.50886 -0.2759,-0.5629 0.06,-0.054 0.9861,-0.4806 2.0585,-0.947913 1.4842,-0.64672 2.1636,-0.80959 2.8443,-0.68189 1.0404,0.19519 1.0728,0.34413 0.3732,1.715523 -0.5194,1.01806 -0.5248,1.02065 -1.6246,0.77354 -1.6228,-0.36461 -1.8299,-0.13956 -0.3808,0.41385 1.2426,0.47457 1.2597,0.49679 1.1035,1.44113 -0.087,0.52752 -0.16,1.10796 -0.1616,1.28986 -0.01,0.63901 -1.1397,0.3215 -1.956,-0.54762 z m 23.7656,-0.3245 c -0.099,-0.66156 -0.1363,-1.24193 -0.082,-1.28971 0.054,-0.0478 0.5743,-0.33907 1.1564,-0.64733 l 1.0583,-0.56047 -1.3229,0.14891 c -1.2719,0.14316 -1.3408,0.11676 -1.786,-0.68481 -0.6445,-1.160603 -0.5818,-1.516433 0.3015,-1.710433 0.9808,-0.21542 5.1599,1.327223 4.876,1.799903 -2.6256,4.37115 -3.8575,5.23444 -4.2009,2.94394 z m -20.0584,-5.707661 c -0.3185,-0.454601 -0.4312,-1.218594 -0.4312,-2.922285 0,-1.26872 0.089,-2.361583 0.1985,-2.428586 0.3145,-0.193079 3.99,0.794065 4.7078,1.264402 0.9729,0.637459 0.8136,1.268716 -0.4547,1.801747 l -1.0993,0.462015 -0.8822,-0.991181 c -1.0217,-1.147953 -1.1278,-0.970311 -0.3,0.50248 l 0.5826,1.036544 -0.9452,0.945193 -0.9452,0.945195 z m 17.0975,-0.237221 c -0.4729,-0.430246 -0.8599,-0.922311 -0.8599,-1.093478 0,-0.171167 0.3132,-0.857455 0.696,-1.525084 l 0.6961,-1.21387 -1.1654,1.120873 -1.1654,1.120874 -1.1181,-0.553211 c -0.615,-0.304266 -1.1182,-0.639077 -1.1182,-0.744024 0,-0.526879 1.3762,-1.345298 2.9104,-1.730843 0.9459,-0.237694 1.9171,-0.489942 2.1583,-0.560551 0.6798,-0.199078 0.9847,3.966129 0.3764,5.142536 -0.2374,0.459005 -0.4583,0.831063 -0.4909,0.826803 -0.033,-0.004 -0.4463,-0.35978 -0.9193,-0.790025 z m -10.9141,-3.810251 c 0,-0.938106 0.4212,-1.635631 1.9805,-3.280452 l 1.0823,-1.141604 1.3812,1.633234 c 2.1173,2.503683 2.2395,3.779367 0.3286,3.429929 -0.5992,-0.109557 -1.1369,-0.246696 -1.1949,-0.304751 -0.058,-0.05805 -0.2145,-0.698257 -0.3476,-1.422671 l -0.242,-1.317116 -0.2057,1.392698 c -0.2164,1.46529 -0.1905,1.443471 -2.0547,1.729558 -0.663,0.10173 -0.7277,0.03783 -0.7277,-0.718825 z"
       style="fill:#ffc744;fill-opacity:1"
       id="path1-6" /></g></svg>
