<?xml version="1.0" encoding="UTF-8" standalone="no"?>
<!-- Created with Inkscape (http://www.inkscape.org/) -->

<svg
   width="33.15321mm"
   height="20.464773mm"
   viewBox="0 0 33.15321 20.464773"
   version="1.1"
   id="svg1"
   xml:space="preserve"
   xmlns="http://www.w3.org/2000/svg"
   xmlns:svg="http://www.w3.org/2000/svg"><defs
     id="defs1" /><g
     id="layer1"
     transform="translate(-1022.559,19.416451)"><path
       d="m 1036.2478,0.7329463 c -5.3374,-1.7689621 -8.356,-6.7275684 -7.2764,-11.9527993 0.6779,-3.281083 2.5509,-5.729492 5.601,-7.321913 1.5859,-0.827947 1.8239,-0.874684 4.4536,-0.874684 2.5064,0 2.9404,0.07495 4.4377,0.766416 2.1335,0.985254 4.5463,3.491357 5.2995,5.504354 1.1289,3.017271 0.8981,6.5271008 -0.597,9.0782636 -0.9103,1.5532955 -3.1043,3.4991073 -4.8492,4.3006632 -1.8077,0.830386 -5.3219,1.0787945 -7.0692,0.4996995 z m 6.4034,-1.2819801 c 1.9495,-0.7186122 3.8495,-2.5248933 4.8995,-4.6577444 0.7775,-1.5792875 0.8674,-1.9982065 0.8622,-4.01765 0,-1.8730518 -0.1238,-2.5085868 -0.7039,-3.7560708 -3.4148,-7.344171 -13.5266,-7.487286 -17.0849,-0.241805 -0.6372,1.297583 -0.7262,1.786745 -0.726,3.9923122 2e-4,3.0157125 0.4886,4.2994612 2.4219,6.3663739 2.7241,2.9123154 6.447,3.7463776 10.3312,2.3145841 z m -6.0408,-0.3637472 c -2.6698,-0.8220477 -5.096,-3.2180648 -5.8333,-5.7606526 -0.4245,-1.4638979 -0.3745,-4.3178164 0.096,-5.4561524 l 0.378,-0.915219 1.3336,2.238136 c 1.0102,1.6953302 4.9261,8.4820278 5.8331,10.1094894 0.1582,0.2839299 -0.4018,0.2171229 -1.8071,-0.2156014 z m 3.2093,0.345411 c 0,-0.06087 1.5974,-2.8790504 3.5498,-6.2626227 3.3794,-5.8567063 3.5667,-6.1222333 3.9019,-5.5327453 0.2247,0.395235 0.3523,1.528366 0.3528,3.1327462 6e-4,2.157809 -0.093,2.6961962 -0.6584,3.8041459 -0.8953,1.7531285 -2.2923,3.1302374 -4.0007,3.9438736 -1.3358,0.636179 -3.1454,1.1623528 -3.1454,0.9146023 z m -1.6543,-1.960891 c -0.7071,-1.1796591 -5.576,-9.605746 -6.2042,-10.736626 -0.061,-0.109141 3.1663,-0.198438 7.171,-0.198438 h 7.2812 l -3.4615,6.0192707 c -1.9038,3.3105988 -3.5516,6.1180183 -3.6618,6.2387099 -0.1102,0.1206917 -0.6163,-0.4746208 -1.1247,-1.3229166 z m 2.1562,-1.8730851 c 0.5737,-0.4739882 0.6193,-0.7754025 0.4775,-3.1577303 -0.068,-1.1403954 0,-1.392843 0.3955,-1.496584 0.2625,-0.068635 0.4772,-0.2871636 0.4772,-0.4856191 0,-0.5132195 -4.7448,-0.6704975 -5.0636,-0.1678444 -0.3849,0.606849 -0.2527,0.6966694 0.8143,0.553553 1.5762,-0.2114123 2.4493,0.084119 2.3482,0.7948268 -0.07,0.4925224 -0.2415,0.5811482 -1.0755,0.5557815 -0.5457,-0.016598 -0.9903,0.042933 -0.9881,0.1322917 0.011,0.436697 0.4799,0.7969749 1.3193,1.013407 0.6568,0.1693531 0.9502,0.4073798 1.0103,0.8195311 0.1681,1.1530468 -1.8535,1.0765367 -2.3851,-0.090267 -0.3747,-0.8222757 -0.7423,-0.8437062 -0.7423,-0.04327 0,1.5955989 2.1723,2.5962974 3.4123,1.5719237 z m -0.029,-6.9039629 c 0.3921,-0.499904 0.3285,-1.409041 -0.1086,-1.552799 -0.1634,-0.05373 -0.3605,0.144987 -0.4381,0.441592 -0.1766,0.675239 -1.1905,1.074288 -1.9768,0.778049 -0.9522,-0.358688 -0.7119,0.266989 0.2645,0.688926 0.9632,0.416199 1.7508,0.292164 2.259,-0.355768 z m -1.2668,-1.247589 c 0,-0.38893 -0.5648,-0.52196 -0.8796,-0.207167 -0.2393,0.239271 0.3537,0.913482 0.645,0.73342 0.1291,-0.07975 0.2346,-0.31656 0.2346,-0.526253 z m -6.5814,-2.279846 c 0.7601,-1.067471 2.6626,-2.25487 4.4457,-2.77474 2.7882,-0.812859 6.19,0.07355 8.2873,2.159396 0.5457,0.542729 0.9922,1.082016 0.9922,1.198418 0,0.116401 -3.218,0.215116 -7.1511,0.219366 l -7.151,0.0077 z m -2.2821,14.7527425 c -1.075,-0.479832 -1.9189,-1.4433887 -3.7057,-4.2309514 -0.831,-1.2963514 -2.0478,-2.9311109 -2.7042,-3.6327988 l -1.1933,-1.2757961 1.288,-1.4119632 c 0.7085,-0.77658 1.9332,-2.450001 2.7216,-3.718713 2.1523,-3.463594 4.0271,-4.84869 5.8008,-4.28574 0.4824,0.15311 0.4228,0.271239 -0.6239,1.236009 -1.6775,1.546299 -2.7995,3.452928 -3.3053,5.616817 l -0.4422,1.8916879 -1.5637,0.2249792 c -2.8758,0.413749 -2.8832,0.5590791 -0.042,0.8345702 1.7323,0.1679926 1.7859,0.195156 1.7859,0.9044641 0,1.9769958 1.6799,5.1714729 3.6604,6.960733 0.8009,0.7236009 0.9624,0.9941383 0.6622,1.1093461 -0.6295,0.2415345 -1.4796,0.1605796 -2.3382,-0.222644 z m 15.5737,0.2229614 c -0.1737,-0.078998 0.2803,-0.7197831 1.0727,-1.5138204 1.5911,-1.5945397 2.9817,-4.1934245 3.2249,-6.0269234 l 0.1695,-1.2773814 1.8197,-0.1793085 c 1.0008,-0.09862 1.8197,-0.2676028 1.8197,-0.375518 0,-0.1079152 -0.8189,-0.2768983 -1.8197,-0.3755179 l -1.8197,-0.1793086 -0.1707,-1.2864997 c -0.2582,-1.946775 -1.8083,-4.806822 -3.3626,-6.204255 l -1.33,-1.195725 0.7035,-0.176546 c 2.0358,-0.510974 3.5746,0.869946 6.8089,6.110561 0.3593,0.582083 1.1497,1.568588 1.7566,2.192234 l 1.1035,1.1339001 -0.892,0.8504744 c -0.4906,0.4677609 -1.8579,2.2966876 -3.0385,4.0642816 -1.1806,1.7675939 -2.5151,3.4763119 -2.9657,3.7971509 -0.7979,0.5681727 -2.4742,0.917685 -3.0801,0.6422019 z"
       style="fill:#6580dc;fill-opacity:1"
       id="path1" /></g></svg>
