<?xml version="1.0" encoding="UTF-8" standalone="no"?>
<!-- Created with Inkscape (http://www.inkscape.org/) -->

<svg
   width="30.818338mm"
   height="30.621567mm"
   viewBox="0 0 30.818338 30.621567"
   version="1.1"
   id="svg1"
   xml:space="preserve"
   xmlns="http://www.w3.org/2000/svg"
   xmlns:svg="http://www.w3.org/2000/svg"><defs
     id="defs1" /><g
     id="layer1"
     transform="translate(-1033.898,-11.53407)"><path
       d="m 1045.3374,40.870647 c -0.5611,-1.258161 -0.7882,-3.059908 -0.4307,-3.417423 0.099,-0.09906 0.4993,-0.09999 0.8894,-0.0021 0.6878,0.172617 0.7048,0.222759 0.5578,1.647131 -0.1748,1.693416 -0.048,1.711999 0.4269,0.06275 0.2972,-1.031419 0.4312,-1.172278 1.1849,-1.245813 0.6492,-0.06333 0.8499,0.02096 0.8499,0.356888 0,0.779227 -0.8164,2.08392 -1.8742,2.995412 l -1.0308,0.888142 z m 5.8121,0.236338 c -1.7575,-1.838593 -2.0901,-3.241146 -0.7685,-3.241146 0.6655,0 0.8296,0.154735 1.1924,1.12448 l 0.4206,1.124479 -0.1093,-1.128366 c -0.087,-0.896258 -0.01,-1.181991 0.3777,-1.389062 1.0138,-0.542552 1.3157,-0.330796 1.3157,0.92285 0,1.076815 -0.9242,3.578953 -1.322,3.578953 -0.087,0 -0.5849,-0.446485 -1.1066,-0.992188 z m -11.0597,-3.439583 c 0.1388,-1.732455 0.5705,-2.976562 1.0329,-2.976562 0.1243,0 0.498,0.220328 0.8306,0.489619 l 0.6046,0.48962 -0.5319,0.767151 c -0.9564,1.37926 -0.9477,1.57885 0.025,0.56636 0.9262,-0.964277 0.9751,-0.981569 1.6058,-0.568267 0.7034,0.460872 0.6239,0.911093 -0.3067,1.736614 -0.4279,0.379581 -2.688,1.281402 -3.2114,1.281402 -0.1055,0 -0.1275,-0.803671 -0.049,-1.785937 z m 16.531,1.343736 c -1.1111,-0.399479 -2.5136,-1.559145 -2.5136,-2.078372 0,-0.167697 0.2905,-0.437241 0.6455,-0.598986 0.576,-0.262434 0.7326,-0.194833 1.4552,0.628196 0.9366,1.066725 1.0473,0.899793 0.2598,-0.391887 l -0.548,-0.898876 0.549,-0.548983 0.549,-0.548983 0.5865,0.586586 c 0.4663,0.466264 0.6081,0.966772 0.6914,2.440046 0.1165,2.062632 0.1226,2.057509 -1.6748,1.411259 z m -10.659,-2.157507 c -2.1641,-0.774317 -4.1554,-2.29145 -5.3441,-4.071547 -1.3844,-2.073141 -1.723,-3.28351 -1.7235,-6.161036 -4e-4,-2.093821 0.093,-2.572869 0.7728,-3.96875 1.1015,-2.261329 3.5659,-4.622498 5.5889,-5.354715 2.1958,-0.794794 3.9822,-0.977294 5.8297,-0.595585 4.4134,0.911822 7.524,4.099617 8.3442,8.551244 0.6089,3.304769 -0.5545,6.767141 -3.0748,9.150762 -2.0547,1.943244 -3.8702,2.71233 -6.714,2.844239 -1.7696,0.08208 -2.594,-0.0063 -3.6792,-0.394612 z m 7.1238,-1.443963 c 2.6618,-1.304164 4.4229,-3.449963 5.1422,-6.265472 1.1091,-4.341095 -1.1444,-8.850233 -5.3971,-10.799397 -1.2071,-0.553243 -1.9167,-0.690567 -3.6182,-0.700214 -1.8534,-0.01051 -2.3307,0.09242 -3.8365,0.827273 -2.6776,1.306679 -4.1305,2.89731 -5.0272,5.503811 -1.6729,4.862401 1.1092,10.315586 6.0773,11.911882 1.8579,0.596982 4.9132,0.377741 6.6595,-0.477883 z m -5.9278,0.05163 c -3.8615,-0.909753 -6.6508,-4.395689 -6.6503,-8.311078 2e-4,-1.987313 0.5307,-4.317539 0.8961,-3.93626 0.2461,0.256729 7.1474,12.256974 7.1474,12.428061 0,0.132391 -0.1427,0.113875 -1.3932,-0.180723 z m 2.7875,-0.04285 c 0.07,-0.181901 1.6872,-3.061572 3.5931,-6.399268 l 3.4651,-6.068538 0.4347,1.040348 c 0.257,0.615068 0.4396,1.799572 0.4466,2.89761 0.024,3.78895 -2.4728,7.214529 -6.069,8.3253 -2.0421,0.63074 -2.0351,0.629978 -1.8705,0.204548 z m -1.2173,-0.79375 c -1.4734,-2.407289 -1.9975,-3.372558 -1.8282,-3.36697 0.1078,0.0036 0.6999,0.122752 1.3158,0.264876 0.8324,0.192078 1.3927,0.164404 2.1829,-0.107812 0.5993,-0.206484 1.0629,-0.255639 1.0629,-0.112696 0,0.273706 -2.1142,3.917914 -2.273,3.917914 -0.053,0 -0.26,-0.26789 -0.4604,-0.595312 z m -1.7008,-4.165758 c -3.6098,-2.200965 -1.7926,-7.939892 2.4034,-7.590072 2.0765,0.173115 3.5788,1.634504 3.8126,3.708695 0.111,0.984801 0.01,1.429416 -0.5685,2.410001 -0.3876,0.661329 -1.0513,1.381673 -1.475,1.600764 -1.1018,0.569738 -3.1289,0.506876 -4.1725,-0.129388 z m 2.3175,-0.182814 c 0,-0.09976 -0.2531,-0.450891 -0.5626,-0.780288 -0.6898,-0.73424 -0.489,-1.49298 0.363,-1.371989 0.4252,0.06038 0.5905,0.255678 0.5755,0.680016 -0.024,0.666737 0.1598,0.747615 0.6296,0.277812 0.7655,-0.765564 -0.096,-1.872453 -1.3722,-1.762519 -0.9318,0.08028 -1.243,-0.278349 -0.5959,-0.686568 0.3054,-0.192608 0.5881,-0.174571 0.9663,0.06166 0.4763,0.297413 0.5645,0.255587 0.8071,-0.382609 0.1499,-0.394089 0.505,-0.879393 0.7892,-1.078453 0.2842,-0.199061 0.5155,-0.444474 0.514,-0.545363 0,-0.318719 -4.2863,-0.3343 -4.6686,-0.01699 -0.6101,0.506264 -0.3928,0.73233 0.5559,0.578382 1.0889,-0.176695 2.3492,0.0928 2.1256,0.454525 -0.088,0.141789 -0.4325,0.189218 -0.7665,0.105399 -1.0157,-0.254927 -1.5566,0.535971 -1.3533,1.978953 0.094,0.667817 0.2264,1.405546 0.294,1.639398 0.1631,0.563537 1.6989,1.330713 1.6989,0.848638 z m 0.6615,-6.653685 c 0,-0.47854 -0.5179,-0.391177 -0.6206,0.104691 -0.057,0.275885 0.042,0.396838 0.2646,0.322656 0.1958,-0.06527 0.356,-0.257573 0.356,-0.427347 z m -6.4707,2.006424 c -0.3383,-0.618464 -0.8461,-1.511433 -1.1286,-1.984375 l -0.5136,-0.859896 h 2.4534 c 2.0221,0 2.3756,0.05814 2.0113,0.330729 -0.8388,0.627487 -1.7758,2.155445 -1.7758,2.895674 0,1.045238 -0.3324,0.923874 -1.0467,-0.382132 z m 10.3062,0.529166 c -10e-4,-0.710163 -0.872,-2.206685 -1.6735,-2.876027 -0.316,-0.263893 -0.4554,-0.490028 -0.3099,-0.502523 0.7731,-0.06638 4.4211,-0.02657 4.4904,0.049 0.1298,0.141642 -2.0886,3.90675 -2.3076,3.916253 -0.1091,0.0047 -0.1989,-0.259278 -0.1994,-0.5867 z m -11.6159,-4.630208 c 0.5043,-0.794665 2.5257,-2.258966 3.8586,-2.795119 0.8246,-0.331742 1.9314,-0.517 3.129,-0.52376 2.343,-0.01323 4.58,0.92353 6.2368,2.611666 l 1.1485,1.170234 h -7.3334 c -6.9197,0 -7.3168,-0.02612 -7.0395,-0.463021 z m -6.147,13.250872 c -0.6822,-0.181445 0.8266,-3.110398 1.8838,-3.657129 0.7838,-0.405308 0.8106,-0.398499 1.1221,0.28519 0.3412,0.748834 0.2823,0.834241 -1.396,2.022439 -0.5398,0.382174 -0.435,0.371205 0.6316,-0.06615 1.5825,-0.648846 1.5586,-0.649503 1.9984,0.05477 0.3229,0.517036 0.2982,0.630395 -0.2303,1.058334 -0.5671,0.459199 -2.79,0.626932 -4.0096,0.302546 z m 22.1493,-0.209703 c -0.4515,-0.355554 -0.469,-0.476707 -0.1538,-1.065697 0.4172,-0.779542 0.5579,-0.80099 1.6269,-0.248154 1.1475,0.593359 1.2295,0.285018 0.1085,-0.407784 -1.071,-0.661899 -1.0497,-0.61309 -0.6092,-1.401253 0.1819,-0.325448 0.3522,-0.633089 0.3785,-0.683648 0.026,-0.05056 0.4108,0.122477 0.8544,0.384524 0.7938,0.468874 2.3398,3.168186 2.0059,3.502119 -0.087,0.08709 -0.9557,0.19495 -1.9301,0.239696 -1.2817,0.05885 -1.9126,-0.0296 -2.2811,-0.319803 z m -22.8007,-5.059589 c -0.7129,-0.375936 -1.3907,-0.774047 -1.5062,-0.884691 -0.2778,-0.266132 1.9972,-2.117249 2.9234,-2.37869 1.0295,-0.290593 1.3877,-0.08968 1.3877,0.778379 0,0.673676 -0.1227,0.783592 -1.1245,1.00795 l -1.1245,0.251819 1.0958,0.02833 c 0.9549,0.02469 1.1185,0.118685 1.2721,0.730841 0.3299,1.314548 -0.933,1.515865 -2.9238,0.466057 z m 24.5473,-0.139769 c 0.081,-0.84949 0.1481,-0.903645 1.2763,-1.032695 l 1.1906,-0.136193 -1.1408,-0.200275 c -1.0921,-0.191716 -1.1373,-0.23678 -1.0583,-1.054433 0.075,-0.77885 0.1524,-0.846035 0.8762,-0.762037 0.9567,0.111024 1.072,0.175959 2.4856,1.399447 l 1.1119,0.962399 -1.2696,0.721789 c -0.6982,0.396984 -1.7843,0.78405 -2.4135,0.860145 l -1.144,0.138356 z m -22.8467,-4.239986 c -0.389,-0.14245 -1.1848,-0.891417 -1.7684,-1.664371 l -1.0611,-1.405372 1.6853,-0.456174 c 2.604,-0.704891 3.8574,-0.22275 2.998,1.153305 -0.2529,0.40493 -0.4561,0.452175 -1.1227,0.260993 -1.3979,-0.400911 -1.6615,-0.244631 -0.4867,0.288602 1.1834,0.537167 1.2114,0.581852 0.9577,1.52848 -0.1765,0.658524 -0.1954,0.663145 -1.2021,0.294537 z m 22.9794,0.127296 c -0.099,-0.09861 -0.1793,-0.492724 -0.1793,-0.8758 0,-0.558607 0.1872,-0.764215 0.9458,-1.038524 1.2002,-0.433982 1.0035,-0.682801 -0.2633,-0.333038 -0.8988,0.248184 -0.9776,0.219018 -1.3492,-0.49974 -0.3654,-0.70645 -0.3565,-0.78377 0.1186,-1.038029 0.2823,-0.151098 0.8571,-0.274723 1.2773,-0.274723 0.8904,0 3.3009,0.772766 3.1857,1.021269 -0.8232,1.776123 -3.1255,3.648749 -3.7356,3.038585 z m -21.2033,-4.842159 c -0.2577,-0.284747 -0.6783,-1.298943 -0.9346,-2.253769 l -0.4661,-1.736049 1.3566,0.164989 c 2.5839,0.314247 4.0335,1.515626 2.7817,2.305301 -0.4553,0.28715 -0.7707,0.195961 -1.8219,-0.526622 l -0.6615,-0.454681 0.6615,0.779379 c 0.3638,0.428658 0.7399,0.840291 0.8358,0.914741 0.214,0.166014 -0.6919,1.324432 -1.0357,1.324432 -0.136,0 -0.4581,-0.232975 -0.7158,-0.517721 z m 19.085,-0.111643 c -0.3871,-0.590755 -0.3727,-0.666624 0.2341,-1.236745 0.953,-0.895271 0.7861,-1.177696 -0.2354,-0.398514 l -0.882,0.672725 -0.5894,-0.627355 -0.5894,-0.627354 0.7206,-0.56682 c 0.7452,-0.586182 1.0421,-0.680442 2.9627,-0.940736 l 1.1375,-0.154153 -0.1809,0.997387 c -0.2785,1.535667 -0.9163,2.970051 -1.447,3.254064 -0.65,0.347854 -0.6613,0.344125 -1.1308,-0.372499 z m -15.4836,-3.460985 c -0.2633,-0.727963 -0.2675,-1.260084 -0.02,-2.517407 0.1725,-0.876879 0.389,-1.594326 0.4812,-1.594326 0.5581,0 2.9094,1.936493 3.1983,2.634086 0.3855,0.930675 0.3826,0.936988 -0.5347,1.156204 -0.5865,0.140152 -0.7532,0.01169 -1.3116,-1.010427 -0.7821,-1.431864 -0.9328,-1.385789 -0.4006,0.122546 0.5026,1.424587 0.4999,1.498458 -0.063,1.69711 -0.2547,0.08983 -0.5873,0.224515 -0.7392,0.299308 -0.1519,0.07479 -0.4264,-0.2794 -0.61,-0.787094 z m 12.1741,0.573753 c -0.4852,-0.226735 -0.5862,-0.434579 -0.4694,-0.965842 0.082,-0.372315 0.2152,-0.974592 0.2964,-1.338394 0.091,-0.408434 -0.08,-0.228637 -0.4461,0.470024 -0.3778,0.720393 -0.7253,1.080873 -0.9565,0.992187 -0.1996,-0.07661 -0.5318,-0.139295 -0.7382,-0.139295 -0.5418,0 -0.4609,-0.878032 0.1529,-1.658346 0.5361,-0.68162 2.8607,-2.184741 3.0641,-1.981338 0.061,0.06113 0.1819,0.994356 0.2684,2.073847 0.1864,2.325854 -0.1376,3.030309 -1.1716,2.547157 z m -4.6072,-1.452467 c -0.6835,-0.08751 -0.7295,-0.176451 -0.7583,-1.464656 -0.031,-1.394823 -0.073,-1.346558 -0.3606,0.414449 -0.1446,0.886131 -0.2455,0.992188 -0.9437,0.992188 -0.7093,0 -0.7817,-0.08154 -0.7817,-0.880681 0,-0.780748 1.2248,-3.097258 1.8379,-3.476213 0.3653,-0.225739 1.918,2.250903 2.056,3.279218 0.1503,1.120679 0.011,1.271494 -1.0496,1.135695 z"
       style="fill:#53c8f4;fill-opacity:1"
       id="path1-3" /></g></svg>
